<svg width="121" height="104" viewBox="0 0 121 104" fill="none" xmlns="http://www.w3.org/2000/svg">
<path d="M104.131 11.8916L96.418 9.80251L104.131 7.71345L106.22 0L108.31 7.71345L116.184 9.80251L108.31 11.8916L106.22 19.7657L104.131 11.8916ZM111.845 20.4085L108.792 19.7657L111.845 18.9622L112.488 15.909L113.291 18.9622L116.344 19.7657L113.291 20.4085L112.488 23.4618L111.845 20.4085Z" fill="#FDCD60"/>
<path d="M3.37464 81.9554L0 81.1519L3.37464 80.3485L4.17812 76.9738L4.9816 80.3485L8.35624 81.1519L4.9816 81.9554L4.17812 85.3301L3.37464 81.9554Z" fill="#FDCD60"/>
<path d="M15.5889 6.74925C15.5889 7.13283 15.7412 7.50069 16.0125 7.77192C16.2837 8.04315 16.6516 8.19552 17.0351 8.19552C17.4187 8.19552 17.7866 8.04315 18.0578 7.77192C18.329 7.50069 18.4814 7.13283 18.4814 6.74925C18.4814 6.36568 18.329 5.99781 18.0578 5.72658C17.7866 5.45535 17.4187 5.30298 17.0351 5.30298C16.6516 5.30298 16.2837 5.45535 16.0125 5.72658C15.7412 5.99781 15.5889 6.36568 15.5889 6.74925Z" fill="#5546CB"/>
<path d="M24.1044 98.9893L19.7656 98.0252L24.1044 96.9003L25.0686 92.5615L26.1935 96.9003L30.5323 98.0252L26.1935 98.9893L25.0686 103.328L24.1044 98.9893Z" fill="#FDCD60"/>
<path d="M111.525 100.114C110.731 100.114 109.954 99.8786 109.293 99.4372C108.633 98.9957 108.118 98.3683 107.814 97.6342C107.51 96.9001 107.43 96.0923 107.585 95.313C107.74 94.5337 108.123 93.8179 108.684 93.2561C109.246 92.6942 109.962 92.3116 110.741 92.1566C111.521 92.0016 112.329 92.0811 113.063 92.3852C113.797 92.6893 114.424 93.2042 114.866 93.8648C115.307 94.5255 115.543 95.3022 115.543 96.0968C115.543 97.1623 115.119 98.1841 114.366 98.9376C113.613 99.691 112.591 100.114 111.525 100.114ZM111.525 94.3291C111.207 94.3291 110.897 94.4234 110.632 94.6C110.368 94.7765 110.162 95.0275 110.041 95.3211C109.919 95.6148 109.887 95.9379 109.949 96.2496C110.011 96.5613 110.164 96.8477 110.389 97.0724C110.614 97.2971 110.9 97.4502 111.212 97.5122C111.523 97.5742 111.847 97.5424 112.14 97.4207C112.434 97.2991 112.685 97.0932 112.861 96.8289C113.038 96.5646 113.132 96.2539 113.132 95.9361C113.132 95.5099 112.963 95.1012 112.662 94.7998C112.36 94.4984 111.951 94.3291 111.525 94.3291Z" fill="#5546CB"/>
<path d="M78.5801 47.727L76.9732 44.9952L78.7408 43.8703V13.1772L75.2055 15.4269C75.5299 16.6867 75.6919 17.9828 75.6876 19.2837C75.6876 23.7832 72.6343 29.5683 66.3672 36.6389C69.7418 37.7638 71.8309 39.6922 71.8309 42.1026C71.8309 44.5131 66.8493 48.5305 60.4214 48.5305C53.9935 48.5305 49.0119 45.7986 49.0119 42.1026C49.0119 38.4066 51.101 37.7638 54.4756 36.6389L50.4582 31.818L44.0303 35.9961V64.9216H44.3517L46.1194 63.7967L47.887 66.5285L45.1552 68.1355H44.0303V86.1336L78.7408 69.7425V47.5663L78.5801 47.727ZM56.886 61.0649L54.3149 62.6718L53.0293 63.4753L51.7437 64.2788H51.583L50.7796 62.8325L49.9761 61.5469L51.4223 60.7435L55.2791 58.333L56.886 61.0649ZM65.8851 55.4405L60.5821 58.6544L58.9751 55.9225L64.2781 52.7086L65.8851 55.4405ZM74.8841 49.8161L69.5811 53.03L67.9741 50.2982L70.706 48.6912L73.2771 47.0842L74.8841 49.8161ZM8.03418 69.9032L40.8164 85.8122V35.6747L8.03418 14.6234V69.9032ZM34.0671 58.0116L39.2094 61.5469L37.4417 64.1181L32.2994 60.5828L34.0671 58.0116ZM24.9074 53.03L25.5501 52.2265L26.8357 53.1907L30.5317 55.7619L28.7641 58.333L26.3536 56.5653L25.0681 55.6012L23.7825 54.637L24.9074 53.03ZM18.1581 45.7986C19.0798 45.7986 19.9808 46.072 20.7472 46.584C21.5135 47.0961 22.1108 47.8239 22.4636 48.6755C22.8163 49.527 22.9086 50.464 22.7288 51.368C22.5489 52.272 22.1051 53.1024 21.4534 53.7541C20.8016 54.4059 19.9712 54.8497 19.0672 55.0295C18.1633 55.2093 17.2262 55.117 16.3747 54.7643C15.5232 54.4116 14.7953 53.8143 14.2833 53.0479C13.7712 52.2816 13.4979 51.3806 13.4979 50.4589C13.4975 49.8331 13.6232 49.2137 13.8673 48.6376C14.1115 48.0614 14.4692 47.5404 14.9191 47.1054C15.369 46.6705 15.9019 46.3307 16.486 46.1062C17.0701 45.8817 17.6934 45.7771 18.3188 45.7986H18.1581ZM81.9548 43.7096L83.8831 44.6738L82.4369 47.5663L81.9548 47.2449V69.9032L116.826 85.1694V35.8354L81.9548 12.8558V43.7096ZM110.237 54.637C111.159 54.637 112.06 54.9103 112.826 55.4224C113.593 55.9344 114.19 56.6623 114.543 57.5138C114.896 58.3653 114.988 59.3024 114.808 60.2063C114.628 61.1103 114.184 61.9407 113.533 62.5925C112.881 63.2442 112.051 63.688 111.147 63.8678C110.243 64.0477 109.306 63.9554 108.454 63.6027C107.602 63.2499 106.875 62.6526 106.363 61.8863C105.851 61.1199 105.577 60.2189 105.577 59.2972C105.577 58.0612 106.068 56.8759 106.942 56.0019C107.816 55.128 109.001 54.637 110.237 54.637ZM98.6672 52.2265L104.452 55.2798L103.006 58.1723L97.221 55.2798L98.6672 52.2265ZM87.5792 48.5305L88.3826 46.9235L89.8289 47.5663L91.2752 48.2091L94.1677 49.6554L92.7215 52.5479L88.3826 50.2982L86.9364 49.6554L87.5792 48.5305Z" fill="#FDCD60"/>
<path d="M80.6693 8.19551L74.0807 12.5343C72.5924 9.35511 70.0539 6.78592 66.8928 5.25949C63.7318 3.73305 60.1412 3.34264 56.7259 4.154C53.3106 4.96537 50.2793 6.92894 48.1425 9.71399C46.0057 12.499 44.8939 15.9354 44.9945 19.4443C44.9945 22.1761 46.1194 25.5508 48.5299 29.2468L42.5841 33.1035L4.82031 8.8383V71.8315L42.7448 90.3116L80.1872 72.635L120.04 89.9902V34.0677L80.6693 8.19551ZM48.2085 19.2836C48.2085 16.0658 49.4867 12.9799 51.762 10.7045C54.0373 8.42924 57.1233 7.15098 60.3411 7.15098C63.5589 7.15098 66.6448 8.42924 68.9202 10.7045C71.1955 12.9799 72.4737 16.0658 72.4737 19.2836C72.4737 24.5866 66.0458 32.3001 60.4214 38.2458C50.4582 28.1219 48.2085 22.3368 48.2085 19.2836ZM63.7961 39.21C66.6886 39.8528 68.4563 41.1384 68.4563 42.1026C68.4563 43.0667 65.2424 45.3165 60.2608 45.3165C55.2791 45.3165 52.0652 43.3881 52.0652 42.1026C52.0652 40.817 53.8329 39.8528 56.7254 39.21L59.1359 41.6205L60.2608 42.7453L61.3856 41.6205L63.7961 39.21ZM40.8164 85.8121L8.03425 69.9031V14.6234L40.8164 35.6747V85.8121ZM44.0304 86.1335V68.2962H45.1552L47.8871 66.6892L46.1194 63.9573L44.3518 65.0822H44.0304V35.9961L50.4582 31.818L54.4757 36.6389C51.101 37.7637 49.012 39.6921 49.012 42.1026C49.012 44.513 53.9936 48.5304 60.4214 48.5304C66.8493 48.5304 71.8309 45.7986 71.8309 42.1026C71.8309 38.4065 69.7419 37.7637 66.3672 36.6389C72.6344 29.5682 75.6877 23.7831 75.6877 19.2836C75.6919 17.9827 75.5299 16.6867 75.2056 15.4269L78.7409 13.1771V43.7095L76.9732 44.8344L78.5802 47.5663H78.7409V69.7424L44.0304 86.1335ZM116.826 85.1693L81.9548 69.9031V47.2449L82.4369 47.5663L83.8832 44.6737L81.9548 43.7095V12.8557L116.826 35.8354V85.1693Z" fill="#5546CB"/>
<path d="M23.7832 54.7977L25.0688 55.6012L26.3544 56.5653L28.7648 58.333L30.6932 55.6012L26.8364 53.03L25.5509 52.0658L24.9081 52.8693L23.7832 54.7977ZM37.4424 64.1181L39.2101 61.5469L34.0678 58.0116L32.3001 60.5828L37.4424 64.1181ZM55.1191 58.333L51.2624 60.7435L49.8161 61.5469L49.9768 61.7076H49.8161L50.6196 62.9932L51.4231 64.4395V64.2788L51.5838 64.4395L52.8693 63.636L54.3156 62.8325H54.1549L56.8868 61.0649L55.1191 58.333ZM64.1181 52.8693L58.8151 56.0832L60.5828 58.8151L65.8858 55.6012L64.2788 52.8693H64.1181ZM73.2779 47.2449L70.7067 48.8519L67.9749 50.4589L69.5818 53.1907L74.8848 49.9768L73.2779 47.2449ZM86.9371 49.8161L88.3834 50.4589L92.7222 52.7086L94.1685 49.9768V49.8161L91.2759 48.3698L89.8296 47.727L88.3834 46.9235L87.5799 48.5305L86.9371 49.8161ZM103.007 58.0116L104.453 55.1191L98.668 52.2265L97.2217 54.9584V55.1191L103.007 58.0116Z" fill="#5546CB"/>
<path d="M110.237 61.0648C110.587 61.0648 110.929 60.9611 111.219 60.7669C111.51 60.5727 111.737 60.2966 111.871 59.9736C112.004 59.6506 112.039 59.2952 111.971 58.9523C111.903 58.6094 111.735 58.2944 111.487 58.0472C111.24 57.8 110.925 57.6317 110.582 57.5634C110.239 57.4952 109.884 57.5302 109.561 57.664C109.238 57.7978 108.962 58.0244 108.768 58.3151C108.573 58.6058 108.47 58.9475 108.47 59.2971C108.47 59.766 108.656 60.2156 108.987 60.5471C109.319 60.8786 109.769 61.0648 110.237 61.0648Z" fill="#F97744"/>
<path d="M110.239 63.9574C111.161 63.9574 112.062 63.6841 112.828 63.1721C113.595 62.66 114.192 61.9322 114.545 61.0806C114.898 60.2291 114.99 59.2921 114.81 58.3881C114.63 57.4841 114.186 56.6537 113.535 56.002C112.883 55.3502 112.052 54.9064 111.148 54.7266C110.244 54.5468 109.307 54.639 108.456 54.9918C107.604 55.3445 106.877 55.9418 106.364 56.7082C105.852 57.4745 105.579 58.3755 105.579 59.2972C105.579 60.5332 106.07 61.7185 106.944 62.5925C107.818 63.4665 109.003 63.9574 110.239 63.9574ZM110.239 57.5296C110.589 57.5296 110.931 57.6332 111.221 57.8275C111.512 58.0217 111.739 58.2978 111.872 58.6208C112.006 58.9438 112.041 59.2992 111.973 59.6421C111.905 59.985 111.736 60.3 111.489 60.5472C111.242 60.7944 110.927 60.9627 110.584 61.0309C110.241 61.0991 109.886 61.0641 109.563 60.9303C109.24 60.7966 108.964 60.57 108.77 60.2793C108.575 59.9886 108.472 59.6468 108.472 59.2972C108.472 58.8284 108.658 58.3788 108.989 58.0473C109.321 57.7158 109.77 57.5296 110.239 57.5296Z" fill="#5546CB"/>
<path d="M18.3184 52.2264C18.6681 52.2264 19.0098 52.1228 19.3005 51.9285C19.5912 51.7343 19.8178 51.4582 19.9516 51.1352C20.0854 50.8122 20.1204 50.4568 20.0521 50.1139C19.9839 49.771 19.8156 49.4561 19.5684 49.2088C19.3212 48.9616 19.0062 48.7933 18.6633 48.7251C18.3204 48.6569 17.965 48.6919 17.642 48.8257C17.319 48.9594 17.0429 49.186 16.8487 49.4767C16.6545 49.7674 16.5508 50.1092 16.5508 50.4588C16.5508 50.9276 16.737 51.3772 17.0685 51.7087C17.4 52.0402 17.8496 52.2264 18.3184 52.2264Z" fill="white"/>
<path d="M18.3213 55.1191C19.243 55.1191 20.1441 54.8458 20.9104 54.3337C21.6768 53.8216 22.2741 53.0938 22.6268 52.2422C22.9795 51.3907 23.0718 50.4537 22.892 49.5497C22.7122 48.6457 22.2684 47.8153 21.6166 47.1636C20.9649 46.5118 20.1345 46.068 19.2305 45.8882C18.3265 45.7084 17.3895 45.8007 16.538 46.1534C15.6864 46.5061 14.9586 47.1034 14.4465 47.8698C13.9344 48.6362 13.6611 49.5372 13.6611 50.4589C13.6611 51.6948 14.1521 52.8802 15.0261 53.7541C15.9 54.6281 17.0854 55.1191 18.3213 55.1191ZM18.3213 48.6912C18.671 48.6912 19.0127 48.7949 19.3034 48.9891C19.5941 49.1833 19.8207 49.4594 19.9545 49.7824C20.0882 50.1054 20.1233 50.4608 20.055 50.8037C19.9868 51.1466 19.8185 51.4616 19.5713 51.7088C19.3241 51.956 19.0091 52.1244 18.6662 52.1926C18.3233 52.2608 17.9679 52.2258 17.6449 52.092C17.3219 51.9582 17.0458 51.7316 16.8516 51.4409C16.6574 51.1502 16.5537 50.8085 16.5537 50.4589C16.5537 49.99 16.7399 49.5404 17.0714 49.2089C17.4029 48.8774 17.8525 48.6912 18.3213 48.6912Z" fill="#5546CB"/>
<path d="M59.2982 41.7812L56.8877 39.3708C53.9952 40.0136 52.2275 41.2992 52.2275 42.2633C52.2275 43.2275 55.4415 45.4773 60.4231 45.4773C65.4047 45.4773 68.6186 43.5489 68.6186 42.2633C68.6186 40.9778 66.851 40.0136 63.9584 39.3708L61.548 41.7812L60.4231 42.9061L59.2982 41.7812Z" fill="#AFBCF3"/>
<path d="M60.422 38.4066C66.207 32.4608 72.4742 24.7473 72.4742 19.4443C72.4742 16.2266 71.196 13.1406 68.9207 10.8653C66.6453 8.58996 63.5594 7.31171 60.3416 7.31171C57.1238 7.31171 54.0379 8.58996 51.7625 10.8653C49.4872 13.1406 48.209 16.2266 48.209 19.4443C48.209 22.3369 50.4587 28.122 60.422 38.4066ZM54.7976 19.605C54.7976 18.4926 55.1274 17.4052 55.7454 16.4803C56.3635 15.5554 57.2419 14.8345 58.2696 14.4088C59.2973 13.9831 60.4282 13.8717 61.5192 14.0887C62.6102 14.3057 63.6124 14.8414 64.399 15.628C65.1856 16.4146 65.7213 17.4167 65.9383 18.5078C66.1553 19.5988 66.0439 20.7297 65.6182 21.7574C65.1925 22.7851 64.4716 23.6635 63.5467 24.2815C62.6218 24.8995 61.5344 25.2294 60.422 25.2294C58.9303 25.2294 57.4997 24.6368 56.4449 23.5821C55.3901 22.5273 54.7976 21.0967 54.7976 19.605Z" fill="#F97744"/>
<path d="M54.7988 19.605C54.7988 21.0967 55.3914 22.5273 56.4462 23.5821C57.501 24.6369 58.9315 25.2294 60.4232 25.2294C61.9149 25.2294 63.3455 24.6369 64.4003 23.5821C65.455 22.5273 66.0476 21.0967 66.0476 19.605C66.0476 18.1134 65.455 16.6828 64.4003 15.628C63.3455 14.5732 61.9149 13.9807 60.4232 13.9807C58.9315 13.9807 57.501 14.5732 56.4462 15.628C55.3914 16.6828 54.7988 18.1134 54.7988 19.605Z" fill="white"/>
</svg>
