<svg width="100%" height="10vw" viewBox="0 0 182 182" fill="none" xmlns="http://www.w3.org/2000/svg">
<path d="M154.273 30.0371L142.721 27.0156L154.273 23.8164L157.473 12.2637L160.672 23.8164L172.225 27.0156L160.672 30.0371L157.473 41.5898L154.273 30.0371ZM17.2402 143.787L9.95312 142.01L17.2402 140.232L18.8398 132.945L20.6172 140.232L27.9043 142.01L20.6172 143.787L18.8398 151.074L17.2402 143.787Z" fill="#FDCD60"/>
<path d="M165.648 42.6562L161.205 41.5898L165.648 40.5234L166.715 36.0801L167.781 40.5234L172.225 41.5898L167.781 42.6562L166.715 47.0996L165.648 42.6562ZM14.3965 85.668L10.3086 84.7793L14.3965 83.7129L15.4629 79.625L16.3516 83.7129L20.6172 84.7793L16.3516 85.668L15.4629 89.9336L14.3965 85.668Z" fill="#FDCD60"/>
<path d="M20.9727 39.6348C20.9727 40.059 21.1412 40.4659 21.4412 40.7659C21.7412 41.0658 22.148 41.2344 22.5723 41.2344C22.9965 41.2344 23.4034 41.0658 23.7034 40.7659C24.0033 40.4659 24.1719 40.059 24.1719 39.6348C24.1719 39.2105 24.0033 38.8037 23.7034 38.5037C23.4034 38.2037 22.9965 38.0352 22.5723 38.0352C22.148 38.0352 21.7412 38.2037 21.4412 38.5037C21.1412 38.8037 20.9727 39.2105 20.9727 39.6348Z" fill="#5546CB"/>
<path d="M164.582 146.453C163.703 146.453 162.844 146.193 162.113 145.704C161.383 145.216 160.813 144.522 160.477 143.71C160.141 142.898 160.053 142.005 160.224 141.143C160.395 140.281 160.819 139.489 161.44 138.868C162.062 138.246 162.853 137.823 163.715 137.652C164.577 137.48 165.471 137.568 166.282 137.905C167.094 138.241 167.788 138.81 168.277 139.541C168.765 140.272 169.025 141.131 169.025 142.01C169.025 143.188 168.557 144.318 167.724 145.152C166.891 145.985 165.76 146.453 164.582 146.453ZM164.582 140.055C164.231 140.055 163.887 140.159 163.595 140.354C163.302 140.55 163.075 140.827 162.94 141.152C162.805 141.477 162.77 141.834 162.839 142.179C162.907 142.524 163.077 142.84 163.325 143.089C163.574 143.337 163.891 143.507 164.235 143.575C164.58 143.644 164.937 143.609 165.262 143.474C165.587 143.34 165.865 143.112 166.06 142.819C166.255 142.527 166.359 142.184 166.359 141.832C166.315 141.392 166.109 140.984 165.78 140.689C165.451 140.393 165.024 140.23 164.582 140.232V140.055Z" fill="#5546CB"/>
<path d="M151.607 48.877H30.9258C29.4174 48.877 27.9707 49.4762 26.9041 50.5428C25.8375 51.6094 25.2383 53.056 25.2383 54.5645V58.8301H157.117V54.5645C157.118 53.0863 156.543 51.666 155.515 50.6043C154.486 49.5427 153.085 48.9231 151.607 48.877Z" fill="white"/>
<path d="M151.607 45.3223H30.9258C28.4746 45.3223 26.1238 46.296 24.3906 48.0292C22.6573 49.7625 21.6836 52.1133 21.6836 54.5645V128.857C21.6836 131.309 22.6573 133.659 24.3906 135.393C26.1238 137.126 28.4746 138.1 30.9258 138.1H151.607C154.059 138.1 156.409 137.126 158.143 135.393C159.876 133.659 160.85 131.309 160.85 128.857V54.5645C160.85 52.1133 159.876 49.7625 158.143 48.0292C156.409 46.296 154.059 45.3223 151.607 45.3223ZM157.295 128.857V129.391C157.295 130.805 156.733 132.161 155.733 133.161C154.733 134.161 153.377 134.723 151.963 134.723H30.748C29.3339 134.723 27.9777 134.161 26.9777 133.161C25.9778 132.161 25.416 130.805 25.416 129.391V75.0039H157.117L157.295 128.857ZM25.416 71.4492V62.3848H157.117V71.2715L25.416 71.4492ZM25.2383 59.0078V54.5645C25.2383 53.056 25.8375 51.6094 26.9041 50.5428C27.9707 49.4762 29.4174 48.877 30.9258 48.877H151.607C153.116 48.877 154.562 49.4762 155.629 50.5428C156.696 51.6094 157.295 53.056 157.295 54.5645V58.8301L25.2383 59.0078Z" fill="#5546CB"/>
<path d="M25.2383 75.0039V129.213C25.2383 130.627 25.8 131.983 26.8 132.983C27.7999 133.983 29.1562 134.545 30.5703 134.545H151.963C153.377 134.545 154.733 133.983 155.733 132.983C156.733 131.983 157.295 130.627 157.295 129.213V75.0039H25.2383ZM69.4941 124.947H31.1035V121.393H69.4941V124.947ZM88.1562 112.684H31.1035V109.129H88.1562V112.684ZM88.1562 102.197H31.1035V98.8203H88.1562V102.197ZM151.074 124.947H108.062V98.6426H151.074V124.947ZM100.064 82.6465L102.553 80.1582L105.396 83.002L108.24 80.1582L110.729 82.6465L107.885 85.4902L110.906 88.5117L108.418 91L105.396 87.9785L102.375 91L99.8867 88.5117L102.908 85.4902L100.064 82.6465ZM86.0234 82.6465L88.5117 80.1582L91.3555 83.002L94.1992 80.1582L96.6875 82.6465L93.8438 85.4902L96.8652 88.5117L94.377 91L91.3555 87.9785L88.334 91L85.8457 88.5117L88.8672 85.4902L86.0234 82.6465ZM71.9824 82.6465L74.4707 80.1582L77.3145 83.002L80.1582 80.1582L82.6465 82.6465L79.8027 85.4902L82.8242 88.5117L80.3359 91L77.3145 87.9785L74.293 91L71.8047 88.5117L74.8262 85.4902L71.9824 82.6465ZM57.9414 82.6465L60.4297 80.1582L63.2734 83.002L66.1172 80.1582L68.6055 82.6465L65.7617 85.4902L68.7832 88.5117L66.2949 91L63.2734 87.9785L60.252 91L57.7637 88.5117L60.7852 85.4902L57.9414 82.6465ZM43.9004 82.6465L46.3887 80.1582L49.2324 83.002L52.0762 80.1582L54.5645 82.6465L51.7207 85.4902L54.7422 88.5117L52.2539 91L49.2324 87.9785L46.2109 91L43.7227 88.5117L46.7441 85.4902L43.9004 82.6465ZM29.8594 82.6465L32.3477 80.1582L35.1914 83.002L38.0352 80.1582L40.5234 82.6465L37.6797 85.4902L40.7012 88.5117L38.2129 91L35.1914 87.9785L32.1699 91L29.6816 88.5117L32.7031 85.4902L29.8594 82.6465Z" fill="#FDCD60"/>
<path d="M32.3477 91L35.5469 87.9785L38.5684 91L41.0566 88.5117L38.0352 85.4902L40.7012 82.6465L38.2129 80.1582L35.5469 83.002L32.7031 80.1582L30.2148 82.6465L33.0586 85.4902L29.8594 88.5117L32.3477 91ZM46.3887 91L49.4102 87.9785L52.4316 91L55.0977 88.5117L51.8984 85.4902L54.7422 82.6465L52.2539 80.1582L49.4102 83.002L46.7441 80.1582L44.0781 82.6465L46.9219 85.4902L43.9004 88.5117L46.3887 91ZM60.4297 91L63.4512 87.9785L66.4727 91L68.9609 88.5117L65.9395 85.4902L68.7832 82.6465L66.1172 80.1582L63.4512 83.002L60.6074 80.1582L58.1191 82.6465L60.9629 85.4902L57.7637 88.5117L60.4297 91ZM74.293 91L77.3145 87.9785L80.3359 91L83.002 88.5117L79.8027 85.4902L82.6465 82.6465L80.1582 80.1582L77.3145 83.002L74.6484 80.1582L71.9824 82.6465L74.8262 85.4902L71.8047 88.5117L74.293 91ZM88.334 91L91.3555 87.9785L94.377 91L96.8652 88.5117L93.8438 85.4902L96.6875 82.6465L94.1992 80.1582L91.3555 83.002L88.5117 80.1582L86.0234 82.6465L88.8672 85.4902L85.8457 88.5117L88.334 91ZM102.197 91L105.219 87.9785L108.418 91L110.906 88.5117L107.885 85.4902L110.551 82.6465L108.062 80.1582L105.219 83.002L102.553 80.1582L100.064 82.6465L102.73 85.4902L99.709 88.5117L102.197 91Z" fill="#F97744"/>
<path d="M31.1035 98.8203H87.9785V102.375H31.1035V98.8203ZM31.1035 109.129H87.9785V112.684H31.1035V109.129ZM31.1035 121.393H69.3164V124.947H31.1035V121.393Z" fill="#5546CB"/>
<path d="M111.617 102.197H147.342V121.362H111.617V102.197Z" fill="white"/>
<path d="M108.062 124.947H151.074V98.6426H108.062V124.947ZM111.617 102.197H147.52V121.393H111.617V102.197Z" fill="#5546CB"/>
<path d="M25.416 62.3848H157.117V71.3444H25.416V62.3848Z" fill="#AFBCF3"/>
</svg>
