<svg width="20" height="20" viewBox="0 0 20 20" fill="none" xmlns="http://www.w3.org/2000/svg">
<path d="M16.9531 3.30078L15.6836 2.96875L16.9531 2.61719L17.3047 1.34766L17.6562 2.61719L18.9258 2.96875L17.6562 3.30078L17.3047 4.57031L16.9531 3.30078ZM1.89453 15.8008L1.09375 15.6055L1.89453 15.4102L2.07031 14.6094L2.26562 15.4102L3.06641 15.6055L2.26562 15.8008L2.07031 16.6016L1.89453 15.8008Z" fill="#FDCD60"/>
<path d="M18.2031 4.6875L17.7148 4.57031L18.2031 4.45312L18.3203 3.96484L18.4375 4.45312L18.9258 4.57031L18.4375 4.6875L18.3203 5.17578L18.2031 4.6875ZM1.58203 9.41406L1.13281 9.31641L1.58203 9.19922L1.69922 8.75L1.79688 9.19922L2.26562 9.31641L1.79688 9.41406L1.69922 9.88281L1.58203 9.41406Z" fill="#FDCD60"/>
<path d="M2.30469 4.35547C2.30469 4.40209 2.32321 4.4468 2.35617 4.47976C2.38914 4.51273 2.43385 4.53125 2.48047 4.53125C2.52709 4.53125 2.5718 4.51273 2.60476 4.47976C2.63773 4.4468 2.65625 4.40209 2.65625 4.35547C2.65625 4.30885 2.63773 4.26414 2.60476 4.23117C2.5718 4.19821 2.52709 4.17969 2.48047 4.17969C2.43385 4.17969 2.38914 4.19821 2.35617 4.23117C2.32321 4.26414 2.30469 4.30885 2.30469 4.35547Z" fill="#5546CB"/>
<path d="M18.0859 16.0938C17.9894 16.0938 17.895 16.0651 17.8147 16.0115C17.7344 15.9578 17.6718 15.8815 17.6348 15.7923C17.5979 15.7031 17.5882 15.6049 17.607 15.5102C17.6259 15.4155 17.6724 15.3285 17.7407 15.2602C17.809 15.1919 17.896 15.1454 17.9907 15.1266C18.0854 15.1077 18.1836 15.1174 18.2728 15.1544C18.362 15.1913 18.4383 15.2539 18.4919 15.3342C18.5456 15.4145 18.5742 15.5089 18.5742 15.6055C18.5742 15.735 18.5228 15.8592 18.4312 15.9507C18.3396 16.0423 18.2154 16.0938 18.0859 16.0938ZM18.0859 15.3906C18.0473 15.3906 18.0095 15.4021 17.9774 15.4235C17.9453 15.445 17.9203 15.4755 17.9055 15.5112C17.8907 15.5469 17.8868 15.5862 17.8944 15.624C17.9019 15.6619 17.9205 15.6967 17.9478 15.724C17.9751 15.7514 18.0099 15.77 18.0478 15.7775C18.0857 15.785 18.125 15.7812 18.1607 15.7664C18.1964 15.7516 18.2269 15.7266 18.2483 15.6944C18.2698 15.6623 18.2813 15.6246 18.2813 15.5859C18.2764 15.5376 18.2537 15.4928 18.2176 15.4603C18.1815 15.4278 18.1345 15.4099 18.0859 15.4102V15.3906Z" fill="#5546CB"/>
<path d="M16.6602 5.37109H3.39844C3.23268 5.37109 3.07371 5.43694 2.9565 5.55415C2.83929 5.67136 2.77344 5.83033 2.77344 5.99609V6.46484H17.2656V5.99609C17.2657 5.83366 17.2025 5.67758 17.0895 5.56092C16.9765 5.44425 16.8225 5.37617 16.6602 5.37109Z" fill="white"/>
<path d="M16.6602 4.98047H3.39844C3.12908 4.98047 2.87075 5.08747 2.68028 5.27794C2.48982 5.4684 2.38281 5.72673 2.38281 5.99609V14.1602C2.38281 14.4295 2.48982 14.6878 2.68028 14.8783C2.87075 15.0688 3.12908 15.1758 3.39844 15.1758H16.6602C16.9295 15.1758 17.1878 15.0688 17.3783 14.8783C17.5688 14.6878 17.6758 14.4295 17.6758 14.1602V5.99609C17.6758 5.72673 17.5688 5.4684 17.3783 5.27794C17.1878 5.08747 16.9295 4.98047 16.6602 4.98047ZM17.2852 14.1602V14.2188C17.2852 14.3742 17.2234 14.5232 17.1135 14.6331C17.0037 14.743 16.8546 14.8047 16.6992 14.8047H3.37891C3.22351 14.8047 3.07447 14.743 2.96459 14.6331C2.8547 14.5232 2.79297 14.3742 2.79297 14.2188V8.24219H17.2656L17.2852 14.1602ZM2.79297 7.85156V6.85547H17.2656V7.83203L2.79297 7.85156ZM2.77344 6.48438V5.99609C2.77344 5.83033 2.83929 5.67136 2.9565 5.55415C3.07371 5.43694 3.23268 5.37109 3.39844 5.37109H16.6602C16.8259 5.37109 16.9849 5.43694 17.1021 5.55415C17.2193 5.67136 17.2852 5.83033 17.2852 5.99609V6.46484L2.77344 6.48438Z" fill="#5546CB"/>
<path d="M2.77344 8.24219V14.1992C2.77344 14.3546 2.83517 14.5037 2.94505 14.6135C3.05494 14.7234 3.20397 14.7852 3.35938 14.7852H16.6992C16.8546 14.7852 17.0037 14.7234 17.1135 14.6135C17.2234 14.5037 17.2852 14.3546 17.2852 14.1992V8.24219H2.77344ZM7.63672 13.7305H3.41797V13.3398H7.63672V13.7305ZM9.6875 12.3828H3.41797V11.9922H9.6875V12.3828ZM9.6875 11.2305H3.41797V10.8594H9.6875V11.2305ZM16.6016 13.7305H11.875V10.8398H16.6016V13.7305ZM10.9961 9.08203L11.2695 8.80859L11.582 9.12109L11.8945 8.80859L12.168 9.08203L11.8555 9.39453L12.1875 9.72656L11.9141 10L11.582 9.66797L11.25 10L10.9766 9.72656L11.3086 9.39453L10.9961 9.08203ZM9.45312 9.08203L9.72656 8.80859L10.0391 9.12109L10.3516 8.80859L10.625 9.08203L10.3125 9.39453L10.6445 9.72656L10.3711 10L10.0391 9.66797L9.70703 10L9.43359 9.72656L9.76562 9.39453L9.45312 9.08203ZM7.91016 9.08203L8.18359 8.80859L8.49609 9.12109L8.80859 8.80859L9.08203 9.08203L8.76953 9.39453L9.10156 9.72656L8.82812 10L8.49609 9.66797L8.16406 10L7.89062 9.72656L8.22266 9.39453L7.91016 9.08203ZM6.36719 9.08203L6.64062 8.80859L6.95312 9.12109L7.26562 8.80859L7.53906 9.08203L7.22656 9.39453L7.55859 9.72656L7.28516 10L6.95312 9.66797L6.62109 10L6.34766 9.72656L6.67969 9.39453L6.36719 9.08203ZM4.82422 9.08203L5.09766 8.80859L5.41016 9.12109L5.72266 8.80859L5.99609 9.08203L5.68359 9.39453L6.01562 9.72656L5.74219 10L5.41016 9.66797L5.07812 10L4.80469 9.72656L5.13672 9.39453L4.82422 9.08203ZM3.28125 9.08203L3.55469 8.80859L3.86719 9.12109L4.17969 8.80859L4.45312 9.08203L4.14062 9.39453L4.47266 9.72656L4.19922 10L3.86719 9.66797L3.53516 10L3.26172 9.72656L3.59375 9.39453L3.28125 9.08203Z" fill="#FDCD60"/>
<path d="M3.55469 10L3.90625 9.66797L4.23828 10L4.51172 9.72656L4.17969 9.39453L4.47266 9.08203L4.19922 8.80859L3.90625 9.12109L3.59375 8.80859L3.32031 9.08203L3.63281 9.39453L3.28125 9.72656L3.55469 10ZM5.09766 10L5.42969 9.66797L5.76172 10L6.05469 9.72656L5.70312 9.39453L6.01562 9.08203L5.74219 8.80859L5.42969 9.12109L5.13672 8.80859L4.84375 9.08203L5.15625 9.39453L4.82422 9.72656L5.09766 10ZM6.64062 10L6.97266 9.66797L7.30469 10L7.57812 9.72656L7.24609 9.39453L7.55859 9.08203L7.26562 8.80859L6.97266 9.12109L6.66016 8.80859L6.38672 9.08203L6.69922 9.39453L6.34766 9.72656L6.64062 10ZM8.16406 10L8.49609 9.66797L8.82812 10L9.12109 9.72656L8.76953 9.39453L9.08203 9.08203L8.80859 8.80859L8.49609 9.12109L8.20312 8.80859L7.91016 9.08203L8.22266 9.39453L7.89062 9.72656L8.16406 10ZM9.70703 10L10.0391 9.66797L10.3711 10L10.6445 9.72656L10.3125 9.39453L10.625 9.08203L10.3516 8.80859L10.0391 9.12109L9.72656 8.80859L9.45312 9.08203L9.76562 9.39453L9.43359 9.72656L9.70703 10ZM11.2305 10L11.5625 9.66797L11.9141 10L12.1875 9.72656L11.8555 9.39453L12.1484 9.08203L11.875 8.80859L11.5625 9.12109L11.2695 8.80859L10.9961 9.08203L11.2891 9.39453L10.957 9.72656L11.2305 10Z" fill="#F97744"/>
<path d="M3.41797 10.8594H9.66797V11.25H3.41797V10.8594ZM3.41797 11.9922H9.66797V12.3828H3.41797V11.9922ZM3.41797 13.3398H7.61719V13.7305H3.41797V13.3398Z" fill="#5546CB"/>
<path d="M12.2656 11.2305H16.1914V13.3365H12.2656V11.2305Z" fill="white"/>
<path d="M11.875 13.7305H16.6016V10.8398H11.875V13.7305ZM12.2656 11.2305H16.2109V13.3398H12.2656V11.2305Z" fill="#5546CB"/>
<path d="M2.79297 6.85547H17.2656V7.84004H2.79297V6.85547Z" fill="#AFBCF3"/>
</svg>
