<svg width="20" height="20" viewBox="0 0 20 20" fill="none" xmlns="http://www.w3.org/2000/svg">
<path d="M16.1208 3.79143L15.3021 3.55751L16.1208 3.34309L16.3548 2.50488L16.5692 3.34309L17.4074 3.55751L16.5692 3.79143L16.3548 4.61014L16.1208 3.79143ZM2.98245 16.4815L2.33917 16.3255L2.98245 16.1891L3.1189 15.5458L3.27484 16.1891L3.89862 16.3255L3.27484 16.4815L3.1189 17.1053L2.98245 16.4815Z" fill="#FDCD60"/>
<path d="M16.8811 4.8246L16.5887 4.74663L16.8811 4.68815L16.9395 4.39575L16.998 4.68815L17.2904 4.74663L16.998 4.8246L16.9395 5.09751L16.8811 4.8246ZM2.47562 9.32752L2.18323 9.26904L2.47562 9.19107L2.5341 8.91816L2.61208 9.19107L2.88498 9.26904L2.61208 9.32752L2.5341 9.61992L2.47562 9.32752Z" fill="#FDCD60"/>
<path d="M3.52826 6.40352C3.52825 6.42657 3.53278 6.44939 3.5416 6.47068C3.55041 6.49197 3.56333 6.51132 3.57962 6.52762C3.59592 6.54391 3.61526 6.55684 3.63655 6.56566C3.65784 6.57448 3.68065 6.57902 3.7037 6.57902C3.72674 6.57902 3.74956 6.57448 3.77085 6.56566C3.79214 6.55684 3.81148 6.54391 3.82777 6.52762C3.84406 6.51132 3.85699 6.49197 3.8658 6.47068C3.87461 6.44939 3.87914 6.42657 3.87914 6.40352C3.87914 6.38048 3.87461 6.35766 3.8658 6.33637C3.85699 6.31508 3.84406 6.29573 3.82777 6.27943C3.81148 6.26314 3.79214 6.25021 3.77085 6.24139C3.74956 6.23257 3.72674 6.22803 3.7037 6.22803C3.68065 6.22803 3.65784 6.23257 3.63655 6.24139C3.61526 6.25021 3.59592 6.26314 3.57962 6.27943C3.56333 6.29573 3.55041 6.31508 3.5416 6.33637C3.53278 6.35766 3.52825 6.38048 3.52826 6.40352Z" fill="#5546CB"/>
<path d="M14.5029 15.5458C14.4065 15.5458 14.3123 15.5172 14.2321 15.4637C14.152 15.4101 14.0895 15.334 14.0527 15.245C14.0158 15.1559 14.0061 15.058 14.0249 14.9634C14.0437 14.8689 14.0901 14.7821 14.1583 14.7139C14.2265 14.6457 14.3133 14.5993 14.4078 14.5805C14.5024 14.5617 14.6003 14.5714 14.6894 14.6083C14.7784 14.6451 14.8545 14.7076 14.9081 14.7878C14.9616 14.8679 14.9902 14.9621 14.9902 15.0585C14.9902 15.1877 14.9389 15.3117 14.8475 15.4031C14.7561 15.4945 14.6321 15.5458 14.5029 15.5458ZM14.5029 14.8441C14.4643 14.8441 14.4267 14.8555 14.3946 14.8769C14.3625 14.8983 14.3376 14.9288 14.3228 14.9644C14.308 15 14.3042 15.0392 14.3117 15.077C14.3192 15.1148 14.3378 15.1496 14.3651 15.1768C14.3923 15.2041 14.4271 15.2227 14.4649 15.2302C14.5027 15.2377 14.5419 15.2339 14.5775 15.2191C14.6131 15.2043 14.6436 15.1794 14.665 15.1473C14.6864 15.1152 14.6978 15.0776 14.6978 15.039C14.693 14.9908 14.6703 14.946 14.6343 14.9136C14.5982 14.8812 14.5514 14.8633 14.5029 14.8636V14.8441Z" fill="#5546CB"/>
<path d="M12.6316 2.13455C12.3002 1.80317 11.7154 1.84216 11.3255 2.23202L10.0585 3.49907C9.961 3.59654 9.88303 3.77198 9.82455 4.02539L10.2534 4.45424L9.94151 4.76613L9.43468 4.25931C9.33992 4.27034 9.25115 4.31131 9.18127 4.37627L2.20272 11.3743C1.81286 11.7642 1.77387 12.349 2.10526 12.6998L7.25145 17.846C7.3879 17.9825 7.60233 18.0605 7.81675 18.0605C8.03118 18.0605 8.36256 17.9435 8.55749 17.7291L15.3801 10.9065C15.4971 10.7895 15.5555 10.6336 15.5945 10.3802L15.2047 9.9903L15.5165 9.67841L15.8869 10.0488C16.2378 9.93182 16.4522 9.81486 16.5887 9.67841L17.6803 8.58679C18.0702 8.19693 18.1091 7.61213 17.7778 7.26125L12.6316 2.13455ZM14.6589 6.03319L14.1715 6.52051L13.8986 6.24761L14.3859 5.76028L14.6589 6.03319ZM13.5867 4.96106L13.0994 5.44839L12.8265 5.17549L13.3138 4.68816L13.5867 4.96106ZM12.7875 4.16184L13.0604 4.43475L12.5731 4.92208L12.3002 4.64917L12.7875 4.16184ZM11.7154 3.08972L11.9883 3.36262L11.501 3.84995L11.2281 3.57705L11.7154 3.08972ZM11.306 9.67841C11.1306 9.91232 10.8967 10.1852 10.5848 10.4776C10.2729 10.77 9.80505 11.2184 9.62962 11.3743L10.2144 13.3821L9.23975 14.0254L8.34307 12.5829L7.60233 13.1287L7.30993 13.9474H6.78361L6.5497 13.1872L5.78946 12.9143V12.4269L6.90057 12.1345L7.4074 11.6082L5.90642 10.3997L6.62767 9.65891L8.61597 10.3802C8.79141 10.2047 9.16178 9.81486 9.59063 9.44449C10.0195 9.07412 10.2339 8.93767 10.5068 8.78172C10.7797 8.62578 11.1696 8.52831 11.4035 8.60628C11.6374 8.68425 11.6179 8.76223 11.6374 8.89868C11.6569 9.03513 11.5594 9.34702 11.306 9.67841ZM11.384 6.20862L10.8187 5.64332L11.1306 5.33143L11.6959 5.89673L11.384 6.20862ZM11.7739 4.14235L12.2612 3.65502L12.5341 3.92792L12.0468 4.41525L11.7739 4.14235ZM12.846 7.67061L12.2807 7.10531L12.5926 6.79342L13.1579 7.35872L12.846 7.67061ZM13.3723 5.74079L13.8596 5.25346L14.1325 5.52636L13.6452 6.01369L13.3723 5.74079ZM14.308 9.1131L13.7427 8.5478L14.0546 8.23591L14.6199 8.80121L14.308 9.1131ZM14.4444 6.79342L14.9318 6.30609L15.2047 6.57899L14.7173 7.06632L14.4444 6.79342ZM14.9707 7.31973L15.4581 6.8324L15.731 7.10531L15.2436 7.59264L14.9707 7.31973ZM15.77 8.11895L15.4971 7.84605L15.9844 7.35872L16.2573 7.63162L15.77 8.11895ZM16.2768 8.68425L16.0039 8.41135L16.4912 7.92402L16.7641 8.19693L16.2768 8.68425Z" fill="#FBCE49"/>
<path d="M18.0507 7.00782L12.9045 1.86162C12.4172 1.37429 11.579 1.41328 11.0332 1.95909L9.7661 3.22614C9.62965 3.3626 9.51269 3.57702 9.43472 3.86942C9.2008 3.88891 9.02536 3.96688 8.86942 4.10334L1.92985 11.1014C1.38404 11.6472 1.34506 12.4854 1.83239 12.9727L6.95909 18.1189C7.17351 18.3333 7.4854 18.4503 7.79729 18.4503C8.10918 18.4503 8.53803 18.2944 8.81094 18.0215L15.653 11.1794C15.8285 11.0039 15.9259 10.77 15.9844 10.4191C16.4133 10.2827 16.6862 10.1267 16.8616 9.95128L17.9532 8.85967C18.4795 8.33335 18.538 7.49515 18.0507 7.00782ZM17.6803 8.60626L16.5887 9.69787C16.4523 9.83432 16.2378 9.95128 15.887 10.0682L15.5166 9.69787L15.2047 10.0098L15.5946 10.3996C15.5556 10.6335 15.4971 10.809 15.3801 10.9259L8.55753 17.7485C8.3431 17.9435 8.08969 18.0799 7.81679 18.0799C7.54388 18.0799 7.38794 18.002 7.25148 17.8655L2.10529 12.6803C1.77391 12.3489 1.81289 11.7447 2.20276 11.3548L9.18131 4.37624C9.25118 4.31129 9.33996 4.27031 9.43472 4.25928L9.94154 4.7661L10.2534 4.45421L9.82458 4.02536C9.88306 3.77195 9.96103 3.59651 10.0585 3.49905L11.3256 2.23199C11.7154 1.84213 12.3002 1.80314 12.6316 2.13453L17.7778 7.28072C18.1092 7.6121 18.0702 8.21639 17.6803 8.60626Z" fill="#5546CB"/>
<path d="M13.7427 8.54779L14.308 9.11309L14.6199 8.78171L14.0546 8.2359L13.7427 8.54779ZM10.8187 5.64331L11.384 6.20861L11.6959 5.89672L11.1501 5.33142L10.8187 5.64331ZM12.2807 7.1053L12.846 7.65111L13.1579 7.33922L12.5926 6.77391L12.2807 7.1053Z" fill="#5546CB"/>
<path d="M11.2281 8.97664C11.1501 8.93766 10.7992 8.89867 9.82457 9.73688C9.46276 10.0497 9.11789 10.3815 8.79143 10.731L8.69397 10.8285L6.72516 10.1072L6.47175 10.3607L7.97272 11.5692L7.07604 12.4854L6.25732 12.6998L6.86161 12.9143L7.05654 13.5575L7.29046 12.9143L8.46005 12.0371L9.35674 13.4991L9.7466 13.2262L9.1813 11.2378L9.27876 11.1599C9.27876 11.1599 9.82457 10.7115 10.3314 10.1852C11.2086 9.30803 11.2281 9.03512 11.2281 8.97664Z" fill="#F97744"/>
<path d="M11.384 8.62577C11.1501 8.5283 10.8772 8.58678 10.4873 8.8012C10.0975 9.01563 9.92204 9.17157 9.57116 9.46397C9.22029 9.75637 8.75245 10.2242 8.5965 10.3996L6.6277 9.6589L5.90645 10.3996L7.40742 11.6082L6.9006 12.1345L5.78949 12.4269V12.9532L6.54972 13.2262L6.78364 13.9864H7.32945L7.62185 13.1677L8.36259 12.6219L9.25927 14.0644L10.2339 13.4211L9.62964 11.3743C9.80508 11.2184 10.2144 10.8675 10.5848 10.4776C10.9552 10.0878 11.1306 9.89282 11.3061 9.6784C11.4815 9.46397 11.6569 9.11309 11.6179 8.91816C11.579 8.72323 11.5205 8.68424 11.384 8.62577ZM10.3314 10.1852C9.82457 10.692 9.27877 11.1404 9.27877 11.1599L9.1813 11.2378L9.76609 13.2262L9.37623 13.4991L8.47955 12.0371L7.30996 12.9143L7.07604 13.5575L6.88111 12.9143L6.27682 12.6998L7.09553 12.4854L7.99222 11.5692L6.49124 10.3607L6.74465 10.1072L8.73296 10.8285L8.83042 10.731C9.15688 10.3815 9.50175 10.0497 9.86356 9.73688C10.8382 8.89867 11.1696 8.93766 11.2671 8.97664C11.2476 9.03512 11.2086 9.32752 10.3314 10.1852Z" fill="#5546CB"/>
<path d="M11.2321 3.61194L11.7283 3.11572L12.004 3.39141L11.5078 3.88761L11.2321 3.61194ZM11.7758 4.12447L12.272 3.62826L12.5477 3.90395L12.0515 4.40015L11.7758 4.12447ZM12.3057 4.67028L12.8019 4.17406L13.0776 4.44976L12.5814 4.94595L12.3057 4.67028ZM12.8299 5.21038L13.3261 4.71416L13.6018 4.98985L13.1055 5.48605L12.8299 5.21038ZM13.3598 5.7367L13.856 5.24048L14.1317 5.51617L13.6354 6.01237L13.3598 5.7367ZM13.9035 6.24923L14.3997 5.75301L14.6753 6.0287L14.1791 6.5249L13.9035 6.24923ZM14.4334 6.79504L14.9296 6.29882L15.2053 6.57451L14.709 7.07071L14.4334 6.79504ZM14.9576 7.33513L15.4538 6.83892L15.7294 7.11461L15.2332 7.61081L14.9576 7.33513ZM15.5012 7.84767L15.9974 7.35145L16.2731 7.62714L15.7769 8.12334L15.5012 7.84767ZM15.9921 8.42913L16.4883 7.93291L16.764 8.20858L16.2678 8.7048L15.9921 8.42913Z" fill="white"/>
</svg>
