<svg width="172" height="75" viewBox="0 0 172 75" fill="none" xmlns="http://www.w3.org/2000/svg">
<path d="M12.3904 4.3141H23.3672L22.2372 9.24649H20.3539L22.7394 15.1295L23.1878 14.6631L27.887 9.24649H26.3087L27.4386 4.3141H38.4334L37.2855 9.24649H35.4739L24.82 20.4744L23.4031 26.5906H26.4522L25.3222 31.505H13.1975L14.3275 26.5906H17.1972L18.668 20.1157L13.6459 9.24649H11.2425L12.3904 4.3141ZM47.0426 30.0881C46.6002 30.5544 46.0143 30.949 45.2849 31.2718C44.5077 31.6186 43.593 31.792 42.5407 31.792C41.5722 31.792 40.6216 31.6186 39.6889 31.2718C38.7562 30.9251 37.9252 30.4109 37.1958 29.7293C36.4784 29.0358 35.8925 28.1809 35.4381 27.1645C34.9957 26.1481 34.7744 24.9763 34.7744 23.6491C34.7744 22.5012 34.9239 21.431 35.2228 20.4385C35.5218 19.4341 35.9343 18.5194 36.4604 17.6943C36.9865 16.8573 37.6083 16.116 38.3258 15.4703C39.0552 14.8246 39.8443 14.2805 40.6933 13.8381C41.5542 13.3957 42.457 13.0609 43.4016 12.8337C44.3582 12.5945 45.3268 12.475 46.3073 12.475C46.8573 12.475 47.3236 12.5108 47.7063 12.5826C48.1009 12.6543 48.5493 12.7619 49.0515 12.9054C49.5537 13.0489 50.1396 13.3598 50.8092 13.8381L51.0244 12.9234H57.1226L53.948 26.5906H57.3737L56.2258 31.505H46.7198L47.0426 30.0881ZM47.7063 24.8328L48.4954 23.8464L49.3922 19.9722C49.2488 19.6972 49.0634 19.4341 48.8362 19.183C48.609 18.9199 48.3221 18.6928 47.9753 18.5014C47.6405 18.3101 47.2698 18.1666 46.8633 18.071C46.4687 17.9634 46.0681 17.9096 45.6616 17.9096C45.0159 17.9096 44.4001 18.0411 43.8142 18.3041C43.2283 18.5552 42.7141 18.902 42.2717 19.3444C41.8412 19.7749 41.4944 20.2891 41.2314 20.8869C40.9683 21.4848 40.8368 22.1245 40.8368 22.8061C40.8368 23.38 40.9265 23.8822 41.1058 24.3127C41.2852 24.7432 41.5303 25.1019 41.8412 25.3888C42.1521 25.6758 42.5108 25.8911 42.9174 26.0345C43.3239 26.178 43.7604 26.2498 44.2267 26.2498C44.6213 26.2498 45.0219 26.2019 45.4284 26.1063C45.8469 25.9987 46.2475 25.8432 46.6301 25.6399C47.0127 25.4247 47.3715 25.1557 47.7063 24.8328ZM61.6246 12.9234H70.9154L70.5746 14.5914C71.2442 14.0772 71.866 13.6767 72.4399 13.3897C73.0139 13.1027 73.6058 12.8815 74.2156 12.7261C74.8254 12.5587 75.4532 12.475 76.0989 12.475C77.6772 12.475 78.9507 12.8696 79.9192 13.6587C80.553 14.1729 81.0133 14.8186 81.3003 15.5958C82.233 14.6871 83.2314 13.9517 84.2956 13.3897C85.4435 12.7799 86.6632 12.475 87.9545 12.475C88.9948 12.475 89.9036 12.6483 90.6808 12.9951C91.47 13.3419 92.0977 13.8381 92.5641 14.4838C93.0304 15.1295 93.3234 15.9246 93.4429 16.8693C93.5625 17.8019 93.4848 18.8602 93.2098 20.0439L91.7032 26.5906H95.0931L93.9452 31.505H84.4391L86.7528 21.5147C86.8485 21.0603 86.8724 20.6478 86.8246 20.2771C86.7887 19.8945 86.693 19.5716 86.5376 19.3086C86.3941 19.0335 86.1908 18.8243 85.9278 18.6808C85.6767 18.5373 85.3837 18.4656 85.0489 18.4656C84.4391 18.4656 83.6858 18.6987 82.789 19.1651C82.3346 19.4042 81.8503 19.7151 81.3362 20.0977L78.6996 31.505H72.422L74.7357 21.5147C74.8434 21.0603 74.8733 20.6478 74.8254 20.2771C74.7896 19.8945 74.6939 19.5716 74.5385 19.3086C74.395 19.0335 74.1917 18.8243 73.9286 18.6808C73.6775 18.5373 73.3846 18.4656 73.0498 18.4656C72.4399 18.4656 71.6866 18.6987 70.7898 19.1651C70.3235 19.4042 69.8333 19.7151 69.3191 20.0977L66.6825 31.505H60.4049L63.5616 17.8378H60.4767L61.6246 12.9234ZM110.464 12.9234H119.02L115.845 26.5906H119.271L118.141 31.505H109.173L109.514 30.0522C109.143 30.3511 108.754 30.6142 108.348 30.8414C107.834 31.1283 107.272 31.3496 106.662 31.505C106.052 31.6485 105.382 31.7202 104.653 31.7202C103.433 31.7202 102.333 31.4871 101.353 31.0207C100.384 30.5544 99.7026 29.9506 99.308 29.2092C98.9134 28.4559 98.6683 27.6428 98.5726 26.7699C98.4889 25.897 98.5965 24.9285 98.8955 23.8643L100.277 17.8378H97.2812L98.4112 12.9234H107.164L104.725 23.4159C104.605 23.9301 104.581 24.3964 104.653 24.8149C104.725 25.2214 104.874 25.5742 105.101 25.8731C105.328 26.1601 105.621 26.3813 105.98 26.5367C106.351 26.6922 106.769 26.7699 107.236 26.7699C107.618 26.7699 108.001 26.7041 108.384 26.5726C108.766 26.4411 109.125 26.2617 109.46 26.0345C109.807 25.7954 110.141 25.4965 110.464 25.1377L112.15 17.8378H109.316L110.464 12.9234ZM122.768 12.9234H132.974L128.687 31.5409C128.34 33.0475 127.862 34.3269 127.252 35.3792C126.642 36.4434 125.901 37.3103 125.028 37.9799C124.167 38.6614 123.175 39.1517 122.051 39.4506C120.927 39.7615 119.683 39.917 118.32 39.917L119.02 35.1819C119.414 35.1819 119.797 35.1161 120.168 34.9846C120.538 34.853 120.879 34.6558 121.19 34.3927C121.501 34.1296 121.77 33.8068 121.997 33.4242C122.236 33.0415 122.41 32.5991 122.517 32.0969L125.817 17.8378H121.638L122.768 12.9234ZM127.037 6.93275C127.037 6.49033 127.115 6.0778 127.27 5.69517C127.438 5.30058 127.665 4.9598 127.952 4.67282C128.239 4.38585 128.573 4.15866 128.956 3.99125C129.351 3.82385 129.775 3.74015 130.23 3.74015C130.66 3.74015 131.067 3.82385 131.449 3.99125C131.832 4.15866 132.167 4.38585 132.454 4.67282C132.741 4.9598 132.968 5.30058 133.135 5.69517C133.303 6.0778 133.386 6.49033 133.386 6.93275C133.386 7.37517 133.303 7.79368 133.135 8.18827C132.968 8.5709 132.741 8.90571 132.454 9.19268C132.167 9.47966 131.832 9.70684 131.449 9.87425C131.067 10.0416 130.66 10.1253 130.23 10.1253C129.775 10.1253 129.351 10.0416 128.956 9.87425C128.573 9.70684 128.239 9.47966 127.952 9.19268C127.665 8.90571 127.438 8.5709 127.27 8.18827C127.115 7.79368 127.037 7.37517 127.037 6.93275ZM136.023 12.9234H145.565L142.408 26.5906H145.834L144.686 31.505H135.144L138.301 17.8378H134.875L136.023 12.9234ZM140.094 6.93275C140.094 6.49033 140.172 6.0778 140.328 5.69517C140.495 5.30058 140.722 4.9598 141.009 4.67282C141.296 4.38585 141.631 4.15866 142.014 3.99125C142.408 3.82385 142.833 3.74015 143.287 3.74015C143.717 3.74015 144.124 3.82385 144.507 3.99125C144.889 4.15866 145.224 4.38585 145.511 4.67282C145.798 4.9598 146.025 5.30058 146.193 5.69517C146.36 6.0778 146.444 6.49033 146.444 6.93275C146.444 7.37517 146.36 7.79368 146.193 8.18827C146.025 8.5709 145.798 8.90571 145.511 9.19268C145.224 9.47966 144.889 9.70684 144.507 9.87425C144.124 10.0416 143.717 10.1253 143.287 10.1253C142.833 10.1253 142.408 10.0416 142.014 9.87425C141.631 9.70684 141.296 9.47966 141.009 9.19268C140.722 8.90571 140.495 8.5709 140.328 8.18827C140.172 7.79368 140.094 7.37517 140.094 6.93275ZM149.977 12.9234H159.411L159.124 14.4479V14.43C159.662 14.0234 160.218 13.6767 160.792 13.3897C161.366 13.1027 161.958 12.8815 162.568 12.7261C163.178 12.5587 163.806 12.475 164.451 12.475C165.492 12.475 166.4 12.6483 167.178 12.9951C167.955 13.3419 168.577 13.8381 169.043 14.4838C169.509 15.1295 169.802 15.9246 169.922 16.8693C170.053 17.8019 169.982 18.8602 169.707 20.0439L168.182 26.5906H171.572L170.442 31.505H160.918L163.232 21.5147C163.339 21.0603 163.369 20.6478 163.321 20.2771C163.286 19.8945 163.19 19.5716 163.034 19.3086C162.891 19.0335 162.688 18.8243 162.425 18.6808C162.174 18.5373 161.881 18.4656 161.546 18.4656C160.936 18.4656 160.183 18.6987 159.286 19.1651C158.819 19.4042 158.335 19.7151 157.833 20.0977L155.196 31.505H148.901L152.058 17.8378H148.829L149.977 12.9234ZM14.0764 63.5906H16.8923L20.9279 46.2465H17.4483L16.6771 49.5826H10.5071L12.4262 41.3141H37.985L36.0838 49.5826H29.9138L30.685 46.2465H27.2055L23.1699 63.5906H26.2011L25.0532 68.505H12.9464L14.0764 63.5906ZM53.1588 57.1515H47.3117L47.7601 55.2862C47.3535 55.2862 46.9769 55.3281 46.6301 55.4118C46.2953 55.4955 45.9665 55.621 45.6436 55.7884C45.3327 55.9558 45.0278 56.1651 44.7289 56.4162C44.5256 56.5836 44.3224 56.7689 44.1191 56.9722L42.5766 63.5906H46.4687L45.3387 68.505H35.3125L38.4693 54.8378H35.0435L36.1914 49.9234H45.6974L45.3387 51.5376C45.829 51.0952 46.4149 50.7245 47.0964 50.4256C47.8498 50.0908 48.7346 49.9234 49.751 49.9234H54.8448L53.1588 57.1515ZM67.1309 67.0881C66.6885 67.5544 66.1026 67.949 65.3732 68.2718C64.596 68.6186 63.6812 68.792 62.629 68.792C61.6604 68.792 60.7098 68.6186 59.7772 68.2718C58.8445 67.9251 58.0135 67.4109 57.2841 66.7293C56.5666 66.0358 55.9807 65.1809 55.5263 64.1645C55.0839 63.1481 54.8627 61.9763 54.8627 60.6491C54.8627 59.5012 55.0122 58.431 55.3111 57.4385C55.61 56.4341 56.0226 55.5194 56.5487 54.6943C57.0748 53.8573 57.6966 53.116 58.414 52.4703C59.1434 51.8246 59.9326 51.2805 60.7816 50.8381C61.6425 50.3957 62.5453 50.0609 63.4899 49.8337C64.4465 49.5945 65.415 49.475 66.3955 49.475C66.9456 49.475 67.4119 49.5108 67.7945 49.5826C68.1891 49.6543 68.6375 49.7619 69.1397 49.9054C69.6419 50.0489 70.2278 50.3598 70.8975 50.8381L71.1127 49.9234H77.2109L74.0362 63.5906H77.462L76.3141 68.505H66.8081L67.1309 67.0881ZM67.7945 61.8328L68.5837 60.8464L69.4805 56.9722C69.337 56.6972 69.1517 56.4341 68.9245 56.183C68.6973 55.9199 68.4103 55.6928 68.0636 55.5014C67.7288 55.3101 67.3581 55.1666 66.9515 55.071C66.557 54.9634 66.1564 54.9096 65.7498 54.9096C65.1041 54.9096 64.4883 55.0411 63.9024 55.3041C63.3165 55.5552 62.8024 55.902 62.3599 56.3444C61.9295 56.7749 61.5827 57.2891 61.3197 57.8869C61.0566 58.4848 60.9251 59.1245 60.9251 59.8061C60.9251 60.38 61.0147 60.8822 61.1941 61.3127C61.3735 61.7432 61.6186 62.1019 61.9295 62.3888C62.2404 62.6758 62.5991 62.8911 63.0056 63.0345C63.4122 63.178 63.8486 63.2498 64.315 63.2498C64.7095 63.2498 65.1101 63.2019 65.5167 63.1063C65.9352 62.9987 66.3357 62.8432 66.7184 62.6399C67.101 62.4247 67.4597 62.1557 67.7945 61.8328ZM79.8654 49.9234H89.0486L87.9187 54.8378H86.4659L87.7034 62.3888L92.3309 54.8378H90.7526L91.8825 49.9234H101.066L99.9358 54.8378H98.2139L89.3894 68.505H83.3271L80.7981 54.8378H78.7355L79.8654 49.9234ZM106.016 60.6132C106.04 60.9002 106.088 61.1752 106.16 61.4382C106.279 61.8926 106.476 62.2932 106.751 62.6399C107.038 62.9748 107.409 63.2438 107.863 63.4471C108.318 63.6384 108.868 63.734 109.514 63.734C109.992 63.734 110.428 63.6862 110.823 63.5906C111.229 63.4949 111.612 63.3634 111.971 63.196C112.33 63.0166 112.67 62.8074 112.993 62.5682C113.328 62.3291 113.657 62.066 113.98 61.779L117.926 65.2407C116.718 66.5321 115.325 67.4827 113.746 68.0925C112.168 68.6903 110.47 68.9893 108.653 68.9893C107.481 68.9893 106.381 68.798 105.352 68.4153C104.324 68.0327 103.427 67.4886 102.662 66.7832C101.897 66.0657 101.287 65.1988 100.833 64.1824C100.39 63.1661 100.169 62.0241 100.169 60.7567C100.169 59.0468 100.474 57.4923 101.084 56.0933C101.705 54.6943 102.536 53.4986 103.577 52.5061C104.617 51.5017 105.819 50.7305 107.182 50.1924C108.557 49.6424 110.004 49.3673 111.522 49.3673C112.73 49.3673 113.842 49.5826 114.858 50.013C115.875 50.4315 116.748 50.9995 117.477 51.717C118.218 52.4224 118.792 53.2415 119.199 54.1742C119.617 55.1068 119.827 56.0754 119.827 57.0798C119.827 57.3189 119.815 57.588 119.791 57.8869C119.767 58.1859 119.731 58.4967 119.683 58.8196C119.635 59.1305 119.576 59.4414 119.504 59.7523C119.432 60.0632 119.354 60.3501 119.271 60.6132H106.016ZM106.787 56.3086C106.739 56.3923 106.698 56.476 106.662 56.5597H114.428C114.404 56.2368 114.296 55.9259 114.105 55.627C113.926 55.3161 113.681 55.0411 113.37 54.8019C113.071 54.5628 112.712 54.3715 112.294 54.228C111.887 54.0725 111.433 53.9948 110.931 53.9948C110.333 53.9948 109.759 54.0845 109.209 54.2639C108.671 54.4432 108.192 54.7063 107.774 55.053C107.367 55.3878 107.038 55.8064 106.787 56.3086ZM124.167 40.5967H133.835L128.526 63.5906H131.916L130.786 68.505H121.297L126.607 45.5111H123.037L124.167 40.5967Z" fill="#FD5C63"/>
<line x1="0.45916" y1="5.2207" x2="0.45916" y2="69.2544" stroke="#FD5C63" stroke-width="0.918321"/>
</svg>
