<svg width="85" height="37" viewBox="0 0 85 37" fill="none" xmlns="http://www.w3.org/2000/svg">
<path d="M6.11631 2.56286H11.5408L10.9824 5.00033H10.0517L11.2306 7.90758L11.4522 7.67713L13.7744 5.00033H12.9944L13.5528 2.56286H18.9862L18.4189 5.00033H17.5237L12.2588 10.5489L11.5585 13.5714H13.0653L12.5069 16H6.51517L7.07358 13.5714H8.49174L9.21856 10.3716L6.73676 5.00033H5.54905L6.11631 2.56286ZM23.2407 15.2998C23.0221 15.5302 22.7325 15.7252 22.3721 15.8848C21.988 16.0561 21.5359 16.1418 21.0159 16.1418C20.5373 16.1418 20.0675 16.0561 19.6066 15.8848C19.1457 15.7134 18.7351 15.4593 18.3746 15.1225C18.0201 14.7798 17.7305 14.3573 17.506 13.855C17.2873 13.3528 17.178 12.7737 17.178 12.1178C17.178 11.5505 17.2519 11.0216 17.3996 10.5312C17.5473 10.0348 17.7512 9.58279 18.0112 9.17507C18.2712 8.76143 18.5785 8.39507 18.933 8.07598C19.2935 7.7569 19.6835 7.48804 20.103 7.2694C20.5284 7.05077 20.9746 6.88531 21.4414 6.77304C21.9141 6.65486 22.3927 6.59577 22.8773 6.59577C23.1491 6.59577 23.3796 6.6135 23.5686 6.64895C23.7636 6.68441 23.9852 6.73759 24.2334 6.8085C24.4816 6.87941 24.7711 7.03304 25.102 7.2694L25.2084 6.81736H28.222L26.6532 13.5714H28.3461L27.7788 16H23.0812L23.2407 15.2998ZM23.5686 12.7028L23.9586 12.2153L24.4018 10.3007C24.3309 10.1648 24.2393 10.0348 24.127 9.91074C24.0148 9.78074 23.873 9.66847 23.7016 9.57393C23.5361 9.47938 23.353 9.40847 23.1521 9.3612C22.9571 9.30802 22.7591 9.28143 22.5582 9.28143C22.2391 9.28143 21.9348 9.34643 21.6453 9.47643C21.3557 9.60052 21.1016 9.77188 20.883 9.99051C20.6703 10.2032 20.4989 10.4573 20.3689 10.7528C20.2389 11.0482 20.1739 11.3644 20.1739 11.7012C20.1739 11.9848 20.2182 12.233 20.3069 12.4457C20.3955 12.6584 20.5166 12.8357 20.6703 12.9775C20.8239 13.1193 21.0012 13.2257 21.2021 13.2966C21.403 13.3675 21.6187 13.403 21.8491 13.403C22.0441 13.403 22.2421 13.3793 22.443 13.3321C22.6498 13.2789 22.8477 13.2021 23.0368 13.1016C23.2259 12.9953 23.4032 12.8623 23.5686 12.7028ZM30.4468 6.81736H35.0381L34.8697 7.64167C35.2006 7.38758 35.5079 7.18963 35.7915 7.04781C36.0751 6.906 36.3676 6.79668 36.669 6.71986C36.9703 6.63714 37.2806 6.59577 37.5996 6.59577C38.3796 6.59577 39.009 6.79077 39.4876 7.18077C39.8008 7.43485 40.0283 7.75394 40.1701 8.13803C40.631 7.68894 41.1244 7.32554 41.6503 7.04781C42.2176 6.74645 42.8203 6.59577 43.4585 6.59577C43.9725 6.59577 44.4216 6.68145 44.8057 6.85281C45.1957 7.02418 45.5059 7.2694 45.7364 7.58849C45.9668 7.90758 46.1116 8.30053 46.1707 8.76734C46.2298 9.22825 46.1914 9.7512 46.0555 10.3362L45.3109 13.5714H46.9861L46.4189 16H41.7212L42.8646 11.063C42.9119 10.8385 42.9237 10.6346 42.9001 10.4514C42.8823 10.2623 42.8351 10.1028 42.7582 9.97278C42.6873 9.83688 42.5869 9.73347 42.4569 9.66256C42.3328 9.59165 42.188 9.5562 42.0226 9.5562C41.7212 9.5562 41.3489 9.67142 40.9058 9.90188C40.6812 10.0201 40.4419 10.1737 40.1878 10.3628L38.8849 16H35.7826L36.926 11.063C36.9792 10.8385 36.994 10.6346 36.9703 10.4514C36.9526 10.2623 36.9053 10.1028 36.8285 9.97278C36.7576 9.83688 36.6572 9.73347 36.5272 9.66256C36.4031 9.59165 36.2583 9.5562 36.0928 9.5562C35.7915 9.5562 35.4192 9.67142 34.976 9.90188C34.7456 10.0201 34.5033 10.1737 34.2492 10.3628L32.9463 16H29.844L31.404 9.24597H29.8795L30.4468 6.81736ZM54.5822 6.81736H58.8101L57.2413 13.5714H58.9342L58.3758 16H53.944L54.1124 15.2821C53.9293 15.4298 53.7372 15.5598 53.5363 15.672C53.2822 15.8139 53.0045 15.9232 52.7031 16C52.4018 16.0709 52.0709 16.1064 51.7104 16.1064C51.1077 16.1064 50.5641 15.9911 50.0795 15.7607C49.6009 15.5302 49.2641 15.2318 49.0691 14.8655C48.8741 14.4932 48.753 14.0914 48.7057 13.66C48.6643 13.2287 48.7175 12.75 48.8652 12.2241L49.5477 9.24597H48.0675L48.6259 6.81736H52.9513L51.7459 12.0025C51.6868 12.2566 51.675 12.4871 51.7104 12.6939C51.7459 12.8948 51.8197 13.0691 51.932 13.2168C52.0443 13.3587 52.1891 13.468 52.3663 13.5448C52.5495 13.6216 52.7563 13.66 52.9868 13.66C53.1759 13.66 53.365 13.6275 53.554 13.5625C53.7431 13.4975 53.9204 13.4089 54.0859 13.2966C54.2572 13.1784 54.4227 13.0307 54.5822 12.8534L55.4154 9.24597H54.0149L54.5822 6.81736ZM60.6626 6.81736H65.706L63.5876 16.0177C63.4162 16.7623 63.1799 17.3945 62.8785 17.9145C62.5771 18.4404 62.2108 18.8688 61.7794 19.1997C61.354 19.5366 60.8635 19.7788 60.3081 19.9266C59.7526 20.0802 59.1381 20.157 58.4644 20.157L58.8101 17.817C59.0051 17.817 59.1942 17.7845 59.3774 17.7195C59.5606 17.6545 59.729 17.557 59.8826 17.427C60.0363 17.297 60.1692 17.1375 60.2815 16.9484C60.3997 16.7593 60.4853 16.5407 60.5385 16.2925L62.1694 9.24597H60.1042L60.6626 6.81736ZM62.7721 3.85693C62.7721 3.6383 62.8105 3.43444 62.8874 3.24535C62.9701 3.05035 63.0824 2.88194 63.2242 2.74013C63.366 2.59831 63.5314 2.48604 63.7205 2.40331C63.9155 2.32059 64.1253 2.27922 64.3498 2.27922C64.5626 2.27922 64.7635 2.32059 64.9526 2.40331C65.1417 2.48604 65.3071 2.59831 65.4489 2.74013C65.5907 2.88194 65.703 3.05035 65.7857 3.24535C65.8685 3.43444 65.9098 3.6383 65.9098 3.85693C65.9098 4.07557 65.8685 4.28238 65.7857 4.47738C65.703 4.66647 65.5907 4.83193 65.4489 4.97374C65.3071 5.11556 65.1417 5.22783 64.9526 5.31056C64.7635 5.39328 64.5626 5.43465 64.3498 5.43465C64.1253 5.43465 63.9155 5.39328 63.7205 5.31056C63.5314 5.22783 63.366 5.11556 63.2242 4.97374C63.0824 4.83193 62.9701 4.66647 62.8874 4.47738C62.8105 4.28238 62.7721 4.07557 62.7721 3.85693ZM67.2128 6.81736H71.9282L70.3682 13.5714H72.0611L71.4939 16H66.7785L68.3384 9.24597H66.6455L67.2128 6.81736ZM69.2248 3.85693C69.2248 3.6383 69.2632 3.43444 69.34 3.24535C69.4228 3.05035 69.535 2.88194 69.6768 2.74013C69.8187 2.59831 69.9841 2.48604 70.1732 2.40331C70.3682 2.32059 70.578 2.27922 70.8025 2.27922C71.0152 2.27922 71.2161 2.32059 71.4052 2.40331C71.5943 2.48604 71.7598 2.59831 71.9016 2.74013C72.0434 2.88194 72.1557 3.05035 72.2384 3.24535C72.3211 3.43444 72.3625 3.6383 72.3625 3.85693C72.3625 4.07557 72.3211 4.28238 72.2384 4.47738C72.1557 4.66647 72.0434 4.83193 71.9016 4.97374C71.7598 5.11556 71.5943 5.22783 71.4052 5.31056C71.2161 5.39328 71.0152 5.43465 70.8025 5.43465C70.578 5.43465 70.3682 5.39328 70.1732 5.31056C69.9841 5.22783 69.8187 5.11556 69.6768 4.97374C69.535 4.83193 69.4228 4.66647 69.34 4.47738C69.2632 4.28238 69.2248 4.07557 69.2248 3.85693ZM74.1086 6.81736H78.7708L78.629 7.57076V7.5619C78.8949 7.36099 79.1697 7.18963 79.4533 7.04781C79.737 6.906 80.0295 6.79668 80.3308 6.71986C80.6322 6.63714 80.9424 6.59577 81.2615 6.59577C81.7756 6.59577 82.2247 6.68145 82.6088 6.85281C82.9929 7.02418 83.3001 7.2694 83.5306 7.58849C83.761 7.90758 83.9058 8.30053 83.9649 8.76734C84.0299 9.22825 83.9944 9.7512 83.8585 10.3362L83.1051 13.5714H84.7803L84.2219 16H79.5154L80.6588 11.063C80.712 10.8385 80.7267 10.6346 80.7031 10.4514C80.6854 10.2623 80.6381 10.1028 80.5613 9.97278C80.4904 9.83688 80.3899 9.73347 80.2599 9.66256C80.1358 9.59165 79.9911 9.5562 79.8256 9.5562C79.5242 9.5562 79.152 9.67142 78.7088 9.90188C78.4784 10.0201 78.239 10.1737 77.9909 10.3628L76.6879 16H73.5768L75.1368 9.24597H73.5414L74.1086 6.81736ZM6.94949 31.5714H8.34106L10.3354 23.0003H8.61583L8.2347 24.649H5.18564L6.13404 20.5629H18.7646L17.8251 24.649H14.776L15.1571 23.0003H13.4376L11.4433 31.5714H12.9412L12.374 34H6.39108L6.94949 31.5714ZM26.2632 28.3894H23.3736L23.5952 27.4676C23.3943 27.4676 23.2082 27.4882 23.0368 27.5296C22.8714 27.571 22.7089 27.633 22.5493 27.7157C22.3957 27.7985 22.245 27.9019 22.0973 28.026C21.9968 28.1087 21.8964 28.2003 21.7959 28.3007L21.0337 31.5714H22.9571L22.3987 34H17.4439L19.0039 27.246H17.311L17.8782 24.8174H22.5759L22.3987 25.6151C22.6409 25.3964 22.9305 25.2133 23.2673 25.0655C23.6396 24.9001 24.0768 24.8174 24.5791 24.8174H27.0963L26.2632 28.3894ZM33.1679 33.2998C32.9492 33.5302 32.6597 33.7252 32.2992 33.8848C31.9152 34.0561 31.4631 34.1418 30.9431 34.1418C30.4645 34.1418 29.9947 34.0561 29.5338 33.8848C29.0729 33.7134 28.6622 33.4593 28.3018 33.1225C27.9472 32.7798 27.6577 32.3573 27.4332 31.855C27.2145 31.3528 27.1052 30.7737 27.1052 30.1178C27.1052 29.5505 27.1791 29.0216 27.3268 28.5312C27.4745 28.0348 27.6784 27.5828 27.9384 27.1751C28.1984 26.7614 28.5056 26.3951 28.8602 26.076C29.2206 25.7569 29.6106 25.488 30.0302 25.2694C30.4556 25.0508 30.9018 24.8853 31.3686 24.773C31.8413 24.6549 32.3199 24.5958 32.8045 24.5958C33.0763 24.5958 33.3067 24.6135 33.4958 24.649C33.6908 24.6844 33.9124 24.7376 34.1606 24.8085C34.4088 24.8794 34.6983 25.033 35.0292 25.2694L35.1356 24.8174H38.1492L36.5803 31.5714H38.2733L37.706 34H33.0083L33.1679 33.2998ZM33.4958 30.7028L33.8858 30.2153L34.329 28.3007C34.2581 28.1648 34.1665 28.0348 34.0542 27.9107C33.942 27.7807 33.8001 27.6685 33.6288 27.5739C33.4633 27.4794 33.2801 27.4085 33.0792 27.3612C32.8842 27.308 32.6863 27.2814 32.4854 27.2814C32.1663 27.2814 31.862 27.3464 31.5724 27.4764C31.2829 27.6005 31.0288 27.7719 30.8102 27.9905C30.5974 28.2032 30.4261 28.4573 30.2961 28.7528C30.1661 29.0482 30.1011 29.3644 30.1011 29.7012C30.1011 29.9848 30.1454 30.233 30.234 30.4457C30.3227 30.6584 30.4438 30.8357 30.5974 30.9775C30.7511 31.1193 30.9283 31.2257 31.1293 31.2966C31.3302 31.3675 31.5458 31.403 31.7763 31.403C31.9713 31.403 32.1692 31.3793 32.3702 31.3321C32.577 31.2789 32.7749 31.2021 32.964 31.1016C33.1531 30.9953 33.3304 30.8623 33.4958 30.7028ZM39.461 24.8174H43.9991L43.4407 27.246H42.7228L43.3344 30.9775L45.6212 27.246H44.8412L45.3996 24.8174H49.9377L49.3793 27.246H48.5284L44.1675 34H41.1717L39.9219 27.246H38.9026L39.461 24.8174ZM52.3841 30.1C52.3959 30.2419 52.4195 30.3778 52.455 30.5078C52.5141 30.7323 52.6116 30.9303 52.7475 31.1016C52.8893 31.2671 53.0725 31.4 53.297 31.5005C53.5215 31.595 53.7934 31.6423 54.1124 31.6423C54.3488 31.6423 54.5645 31.6187 54.7595 31.5714C54.9604 31.5241 55.1495 31.4591 55.3268 31.3764C55.504 31.2878 55.6724 31.1843 55.832 31.0662C55.9974 30.948 56.1599 30.818 56.3195 30.6762L58.2695 32.3868C57.6726 33.025 56.9842 33.4948 56.2042 33.7961C55.4243 34.0916 54.5852 34.2393 53.687 34.2393C53.1079 34.2393 52.5643 34.1448 52.0561 33.9557C51.5479 33.7666 51.1047 33.4977 50.7266 33.1491C50.3484 32.7946 50.047 32.3662 49.8225 31.8639C49.6039 31.3616 49.4945 30.7973 49.4945 30.1709C49.4945 29.326 49.6452 28.5578 49.9466 27.8664C50.2538 27.1751 50.6645 26.5842 51.1786 26.0937C51.6927 25.5974 52.2866 25.2162 52.9602 24.9503C53.6397 24.6785 54.3547 24.5426 55.1052 24.5426C55.702 24.5426 56.2515 24.649 56.7538 24.8617C57.2561 25.0685 57.6874 25.3492 58.0479 25.7037C58.4142 26.0523 58.6979 26.4571 58.8988 26.918C59.1056 27.3789 59.209 27.8576 59.209 28.3539C59.209 28.4721 59.2031 28.6051 59.1913 28.7528C59.1794 28.9005 59.1617 29.0541 59.1381 29.2137C59.1144 29.3673 59.0849 29.521 59.0494 29.6746C59.014 29.8282 58.9756 29.97 58.9342 30.1H52.3841ZM52.7652 27.9728C52.7416 28.0141 52.7209 28.0555 52.7031 28.0969H56.5411C56.5292 27.9373 56.4761 27.7837 56.3815 27.636C56.2929 27.4823 56.1717 27.3464 56.0181 27.2282C55.8704 27.1101 55.6931 27.0155 55.4863 26.9446C55.2854 26.8678 55.0608 26.8294 54.8127 26.8294C54.5172 26.8294 54.2336 26.8737 53.9618 26.9623C53.6959 27.051 53.4595 27.181 53.2527 27.3523C53.0518 27.5178 52.8893 27.7246 52.7652 27.9728ZM61.354 20.2083H66.1314L63.5078 31.5714H65.183L64.6246 34H59.9358L62.5594 22.6369H60.7956L61.354 20.2083Z" fill="#FD5C63"/>
<line x1="0.226907" y1="2.33038" x2="0.226907" y2="33.9747" stroke="#FD5C63" stroke-width="0.453814"/>
</svg>
