<svg width="40" height="40" viewBox="0 0 40 40" fill="none" xmlns="http://www.w3.org/2000/svg">
<circle cx="20" cy="20" r="20" fill="#338732"/>
<g clip-path="url(#clip0_96_109)">
<path d="M17.3368 25.1988C19.8699 22.4485 22.3192 14.5392 16.6224 9.29235C10.9257 4.04547 5.48995 9.58039 11.8228 15.4131" fill="#AF773F"/>
<path d="M24.3725 9.29289C24.0562 9.58333 23.7565 9.89127 23.4747 10.2153C22.5074 9.92148 21.5021 9.77223 20.4912 9.77233C15.0684 9.77233 10.6724 14.0342 10.6724 18.5718C10.6724 19.1821 10.752 19.7767 10.903 20.349C11.1811 21.403 11.3107 22.4897 11.3136 23.5798C11.3136 23.5943 11.3137 23.6089 11.3139 23.6235C11.3427 25.7502 13.079 27.4878 15.2057 27.5175C16.2458 27.5321 17.195 27.1443 17.9082 26.5C18.7313 26.6874 19.5972 26.788 20.4912 26.788C21.3853 26.788 22.2511 26.6874 23.0743 26.5C23.7874 27.1443 24.7366 27.5321 25.7767 27.5175C27.9033 27.4878 29.6397 25.7503 29.6685 23.6236C29.6687 23.6089 29.6688 23.5943 29.6688 23.5797C29.6716 22.4896 29.8014 21.4029 30.0794 20.3488C30.2326 19.7689 30.3101 19.1716 30.31 18.5717C30.31 17.3833 30.008 16.214 29.4654 15.135C35.3289 9.4134 29.9812 4.13527 24.3725 9.29289Z" fill="#D19B61"/>
<path d="M28.226 16.7622C28.509 15.3203 27.5695 13.922 26.1276 13.639C24.6857 13.3561 23.2874 14.2956 23.0044 15.7375V15.7376L23.0044 15.7376C22.7181 16.6905 22.8853 16.995 22.7653 17.911C22.6371 18.8895 22.4732 18.6415 22.2454 19.8019C21.9058 21.5324 23.0334 23.2106 24.7639 23.5502C26.4639 23.8838 28.1125 22.8011 28.4921 21.1221C28.4992 21.0931 28.506 21.0633 28.5122 21.0317C28.8625 19.2466 27.9047 18.3995 28.226 16.7622Z" fill="#AF773F"/>
<path d="M22.4429 28.6386C22.4429 30.1331 21.569 31.3446 20.4911 31.3446C19.4132 31.3446 18.5393 30.1331 18.5393 28.6386C18.5393 27.1441 19.4132 25.9326 20.4911 25.9326C21.569 25.9326 22.4429 27.1441 22.4429 28.6386ZM28.4911 13.6091L28.6383 13.3484C32.043 10.2175 29.125 7.24167 26.0623 10.058C25.7536 10.3418 25.4902 10.6404 25.266 10.949C26.5436 11.6185 27.6459 12.5369 28.4911 13.6091ZM12.3534 13.3444L12.4978 13.6008C13.3441 12.5297 14.447 11.6125 15.7251 10.9444C15.5016 10.6367 15.2392 10.3391 14.9319 10.0561C11.8714 7.23733 8.95116 10.2109 12.3534 13.3444Z" fill="#FFA1E0"/>
<path d="M25.936 24.3179C25.566 22.9369 24.5315 21.9263 23.3153 21.5889V18.864C23.3153 17.3043 22.0509 16.0399 20.4912 16.0399C18.9315 16.0399 17.6671 17.3043 17.6671 18.864V21.5889C16.4509 21.9263 15.4164 22.9369 15.0464 24.3179C14.5067 26.3319 15.5844 28.3704 17.4533 28.8712C18.4739 29.1447 19.5188 28.902 20.3455 28.2982V25.9326H20.637V28.2982C21.4637 28.902 22.5086 29.1447 23.5292 28.8712C25.3981 28.3704 26.4757 26.3318 25.936 24.3179Z" fill="#EADFD6"/>
<path d="M17.3172 26.7879C17.3172 26.7416 17.3356 26.6972 17.3684 26.6644C17.4012 26.6316 17.4456 26.6132 17.4919 26.6132C17.5383 26.6132 17.5827 26.6316 17.6155 26.6644C17.6482 26.6972 17.6667 26.7416 17.6667 26.7879C17.6667 26.8343 17.6482 26.8787 17.6155 26.9115C17.5827 26.9442 17.5383 26.9626 17.4919 26.9626C17.4456 26.9626 17.4012 26.9442 17.3684 26.9115C17.3356 26.8787 17.3172 26.8343 17.3172 26.7879ZM17.0882 25.0364C17.1346 25.0364 17.179 25.018 17.2118 24.9852C17.2445 24.9525 17.2629 24.908 17.2629 24.8617C17.2629 24.8154 17.2445 24.7709 17.2118 24.7382C17.179 24.7054 17.1346 24.687 17.0882 24.687C17.0419 24.687 16.9975 24.7054 16.9647 24.7382C16.9319 24.7709 16.9135 24.8154 16.9135 24.8617C16.9135 24.908 16.9319 24.9525 16.9647 24.9852C16.9975 25.018 17.0419 25.0364 17.0882 25.0364ZM16.0194 26.282C16.0658 26.282 16.1102 26.2636 16.143 26.2308C16.1757 26.1981 16.1941 26.1536 16.1941 26.1073C16.1941 26.061 16.1757 26.0165 16.143 25.9838C16.1102 25.951 16.0658 25.9326 16.0194 25.9326C15.9731 25.9326 15.9287 25.951 15.8959 25.9838C15.8631 26.0165 15.8447 26.061 15.8447 26.1073C15.8447 26.1536 15.8631 26.1981 15.8959 26.2308C15.9287 26.2636 15.9731 26.282 16.0194 26.282ZM23.4727 24.687C23.4264 24.687 23.3819 24.7054 23.3492 24.7381C23.3164 24.7709 23.298 24.8153 23.298 24.8617C23.298 24.908 23.3164 24.9524 23.3492 24.9852C23.3819 25.018 23.4264 25.0364 23.4727 25.0364C23.519 25.0364 23.5635 25.018 23.5962 24.9852C23.629 24.9524 23.6474 24.908 23.6474 24.8617C23.6474 24.8153 23.629 24.7709 23.5962 24.7381C23.5635 24.7054 23.519 24.687 23.4727 24.687ZM23.8764 26.6132C23.8301 26.6132 23.7856 26.6316 23.7529 26.6644C23.7201 26.6972 23.7017 26.7416 23.7017 26.7879C23.7017 26.8343 23.7201 26.8787 23.7529 26.9115C23.7856 26.9442 23.8301 26.9626 23.8764 26.9626C23.9228 26.9626 23.9672 26.9442 24 26.9115C24.0327 26.8787 24.0511 26.8343 24.0511 26.7879C24.0511 26.7416 24.0327 26.6972 24 26.6644C23.9672 26.6316 23.9228 26.6132 23.8764 26.6132ZM24.9452 25.3676C24.8989 25.3676 24.8544 25.386 24.8217 25.4188C24.7889 25.4515 24.7705 25.496 24.7705 25.5423C24.7705 25.5887 24.7889 25.6331 24.8217 25.6659C24.8544 25.6986 24.8989 25.717 24.9452 25.717C24.9916 25.717 25.036 25.6986 25.0688 25.6659C25.1015 25.6331 25.1199 25.5887 25.1199 25.5423C25.1199 25.496 25.1015 25.4515 25.0688 25.4188C25.036 25.386 24.9916 25.3676 24.9452 25.3676Z" fill="#AF773F"/>
<path d="M15.3299 17.265C16.0303 17.265 16.5981 17.8328 16.5981 18.5332V20.4208C16.5981 21.1212 16.0303 21.689 15.3299 21.689C14.6295 21.689 14.0618 21.1212 14.0618 20.4208V18.5332C14.0618 17.8328 14.6295 17.265 15.3299 17.265ZM25.6521 17.265C24.9518 17.265 24.384 17.8328 24.384 18.5332V20.4208C24.384 21.1212 24.9518 21.689 25.6521 21.689C26.3525 21.689 26.9203 21.1212 26.9203 20.4208V18.5332C26.9203 17.8328 26.3525 17.265 25.6521 17.265ZM21.5799 24.1029C21.5799 24.1029 21.0434 24.1221 20.5068 24.13L19.4338 24.1029C19.1987 24.0983 18.9597 24.1973 18.7985 24.3929C18.5186 24.7327 18.567 25.2351 18.9068 25.5151L19.4338 25.9493C19.4338 25.9493 19.568 26.0598 19.7692 26.1521C19.8698 26.1853 19.9872 26.2373 20.1129 26.2691L20.3454 26.2968V28.2982C20.3949 28.2621 20.4435 28.2249 20.4911 28.1864C20.5388 28.2249 20.5873 28.2621 20.6368 28.2982V26.3165C20.7269 26.3083 20.8158 26.2865 20.9009 26.2803C21.0266 26.2786 21.144 26.2026 21.2446 26.1689C21.4458 26.0806 21.5799 25.9493 21.5799 25.9493L22.1398 25.401C22.2147 25.3273 22.2734 25.2389 22.3122 25.1412C22.351 25.0436 22.3691 24.9389 22.3652 24.8339C22.3501 24.4152 21.9985 24.0879 21.5799 24.1029Z" fill="#2B3B47"/>
</g>
<defs>
<clipPath id="clip0_96_109">
<rect width="25" height="25" fill="white" transform="translate(8 7)"/>
</clipPath>
</defs>
</svg>
