<svg width="40" height="40" viewBox="0 0 40 40" fill="none" xmlns="http://www.w3.org/2000/svg">
<circle cx="20" cy="20" r="20" fill="#A94FBF"/>
<path d="M28.7207 21.1279C28.2384 20.9504 27.7772 20.837 27.3688 20.7914C26.0262 19.5163 24.2123 18.7328 22.219 18.7328C20.6595 18.7328 19.2101 19.2126 18.01 20.0318C16.2332 19.8999 14.7412 18.5652 14.4379 16.784L14.435 16.7838C14.1968 15.48 13.1814 14.4924 11.9489 14.4737C10.5221 14.452 8.30476 15.7287 8.12083 17.3247C7.85672 19.6158 9.90027 19.6486 11.7008 19.6485C12.52 21.1773 13.8508 22.377 15.4443 23.0386C14.9895 24.004 14.7347 25.0813 14.7347 26.2171C14.7347 27.2011 15.5322 27.999 16.5167 27.999C17.5012 27.999 18.2987 27.2011 18.2987 26.2171C18.2987 25.177 18.7066 24.231 19.3699 23.5285C20.4726 23.3575 21.0174 22.9338 21.1815 22.4372C21.5195 22.3441 21.8684 22.2968 22.219 22.2968C24.3803 22.2968 26.1393 24.0554 26.1393 26.2171C26.1393 27.2011 26.9367 27.999 27.9213 27.999C28.9058 27.999 29.7033 27.2011 29.7033 26.2171C29.7033 25.3649 29.5597 24.5456 29.2961 23.7818C30.9186 23.5218 32.8342 22.7521 32.8884 22.0818C32.9588 21.2113 31.5288 22.1613 28.7207 21.1279Z" fill="#97C83D"/>
<path d="M11.8479 15.3659C12.2271 15.3659 12.5344 15.6733 12.5344 16.0524V16.8964C12.5344 17.2755 12.2271 17.5829 11.8479 17.5829C11.4687 17.5829 11.1614 17.2755 11.1614 16.8964V16.0524C11.1613 15.6733 11.4687 15.3659 11.8479 15.3659Z" fill="#2C3C47"/>
<path d="M27.7739 18.7769C27.7633 18.755 27.7534 18.7338 27.7424 18.7117C26.5708 16.3432 24.7482 15.2197 24.3667 15.5134C24.059 15.7503 24.664 15.8078 25.2789 18.1569C24.6708 18.0585 24.0322 17.9884 23.3711 17.9506C23.0434 16.5908 22.5625 15.4675 22.2188 15.4675C21.8752 15.4675 21.3943 16.5908 21.0666 17.9506C20.4055 17.9884 19.7669 18.0585 19.1588 18.1569C19.7737 15.8078 20.3788 15.7503 20.071 15.5134C19.6895 15.2197 17.8669 16.3433 16.6953 18.7117C16.6843 18.7338 16.6744 18.7551 16.6638 18.7769C14.5679 19.5142 13.2217 20.6593 13.2217 21.9451C13.2217 24.1693 17.2499 25.9725 22.2188 25.9725C27.1877 25.9725 31.2159 24.1693 31.2159 21.9451C31.216 20.6593 29.8698 19.5142 27.7739 18.7769Z" fill="#009D82"/>
<path d="M22.2844 13.5931V13.5842C22.281 13.5842 22.2778 13.5851 22.2744 13.5851C22.271 13.5851 22.2679 13.5842 22.2645 13.5842V13.586C22.2495 13.586 22.234 13.5887 22.219 13.5889C22.2041 13.5888 22.1885 13.586 22.1736 13.586V13.5842C22.1702 13.5842 22.167 13.5851 22.1636 13.5851C22.1602 13.5851 22.1536 13.5931 22.1536 13.5931C18.7222 13.6681 14.3977 16.799 14.3977 20.9534C14.3977 21.516 15.1012 24.4669 22.1537 24.5048V24.5084C22.1572 24.5084 22.1602 24.5081 22.1637 24.5081C22.1672 24.5081 22.1701 24.5084 22.1736 24.5084V24.5078C22.1896 24.5078 22.2031 24.5066 22.2191 24.5066C22.2351 24.5066 22.2485 24.5078 22.2646 24.5078V24.5084C22.2681 24.5084 22.2709 24.5081 22.2745 24.5081C22.278 24.5081 22.2809 24.5084 22.2844 24.5084V24.5048C29.3369 24.4669 30.0404 21.516 30.0404 20.9534C30.0403 16.799 25.7158 13.6681 22.2844 13.5931ZM18.7273 20.2758C18.2675 23.184 16.961 21.6967 16.5795 21.403C16.1979 21.1093 15.8529 20.4148 16.6955 18.7116C17.8672 16.3432 19.6897 15.2196 20.0712 15.5133C20.4528 15.807 19.4313 15.8241 18.7273 20.2758ZM22.219 22.6197C21.6491 22.6197 20.7013 22.827 20.7013 20.6922C20.7013 18.5574 21.6491 15.4675 22.219 15.4675C22.789 15.4675 23.7368 18.5574 23.7368 20.6922C23.7368 22.827 22.789 22.6197 22.219 22.6197ZM27.8586 21.403C27.4771 21.6967 26.1706 23.184 25.7107 20.2758C25.0068 15.8241 23.9854 15.807 24.3669 15.5133C24.7484 15.2196 26.5709 16.3432 27.7426 18.7116C28.5852 20.4148 28.2401 21.1093 27.8586 21.403Z" fill="#047F67"/>
</svg>
