<svg width="40" height="40" viewBox="0 0 40 40" fill="none" xmlns="http://www.w3.org/2000/svg">
<circle cx="20" cy="20" r="20" fill="#1061FC"/>
<path d="M31.5548 17.0387C31.5548 14.7726 30.3274 13.2265 30.0756 11.8589L30.0754 11.859C30.0673 11.8031 30.0578 11.7475 30.047 11.6922C30.0199 11.55 29.9945 11.3895 29.957 11.2325C29.8883 10.9119 29.8037 10.5673 29.6983 10.2245C29.4984 9.53563 29.2153 8.85209 28.9306 8.34813C28.7886 8.09618 28.6526 7.88807 28.5476 7.74369C28.4448 7.59872 28.3725 7.51903 28.3725 7.51903L28.3669 7.51283C28.3341 7.47667 28.2945 7.44733 28.2503 7.42648C28.2062 7.40563 28.1584 7.39368 28.1096 7.39131C28.0609 7.38894 28.0121 7.39619 27.9662 7.41266C27.9202 7.42913 27.878 7.45449 27.8418 7.48729C27.8013 7.52432 27.7694 7.5697 27.7482 7.6203C27.7482 7.6203 27.6785 7.71781 27.6577 7.89691C27.3026 10.9655 23.7436 10.1091 23.4838 10.7949C23.318 11.2323 23.4529 11.407 23.6491 11.6034C23.7286 11.6831 23.8325 11.7337 23.9443 11.7471C23.9412 11.7477 23.979 11.7513 24.0173 11.7648C24.0558 11.775 24.1185 11.7972 24.2047 11.8149C24.3721 11.8551 24.611 11.9141 24.8853 11.9849C25.0229 12.0178 25.1684 12.0641 25.3197 12.1072C25.4722 12.1433 25.6252 12.2074 25.7854 12.2478C25.9389 12.3137 26.1044 12.3507 26.2587 12.4209C26.4158 12.4837 26.5752 12.5412 26.7246 12.6177C26.8824 12.6774 27.0248 12.7629 27.1717 12.835C27.323 12.9004 27.4514 12.9975 27.5914 13.0698C27.7352 13.137 27.8492 13.2404 27.9782 13.3134C28.1094 13.3843 28.2179 13.475 28.3265 13.5521L28.3298 13.5546C28.4244 13.6264 28.5143 13.7042 28.599 13.7874C28.692 14.0888 28.7301 14.4064 28.6994 14.7271C28.6295 15.4561 28.3079 16.1642 27.7367 16.7103C26.7919 17.6136 25.5657 17.5866 24.3013 17.4635L22.0309 17.2314C22.0411 16.2531 22.1369 15.2307 22.2361 14.4233C22.3228 13.7165 21.6009 13.1926 20.953 13.4881C18.1958 14.7457 17.0205 16.2705 16.5205 17.2994C16.4605 17.3188 16.4004 17.3387 16.3405 17.3595C12.1934 18.7988 9.89007 23.1536 10.9255 27.3328C10.9957 28.7097 10.2452 29.7325 9.54276 30.5011C8.75989 31.3576 9.72923 32.1322 11.1945 31.7406C12.6598 31.349 13.4231 31.3765 16.3487 30.3611C17.098 30.1008 17.8508 29.8507 18.607 29.611C19.2326 29.413 20.5506 29.6504 20.9902 30.1376C21.0992 30.2584 21.2129 30.3712 21.3239 30.4605C21.3846 30.5142 21.445 30.5626 21.5041 30.6032C21.6379 30.6957 21.7763 30.7827 21.9219 30.8571C22.0654 30.934 22.222 30.9911 22.3745 31.0453C22.684 31.1483 23.0071 31.2035 23.3098 31.2197C23.4605 31.2286 23.6078 31.2259 23.745 31.2155C23.8763 31.2121 24.0011 31.1968 24.1076 31.1797C24.2087 31.1691 24.3027 31.1432 24.3625 31.1308L24.4558 31.1098C24.6263 31.0714 24.7572 30.9224 24.7644 30.7394L24.7681 30.6439C24.7696 30.5828 24.7781 30.4856 24.7703 30.3844C24.7679 30.2765 24.7605 30.151 24.7401 30.0213C24.725 29.8768 24.7001 29.7336 24.6657 29.5925C24.5951 29.2976 24.4825 28.9899 24.3254 28.704C24.2446 28.5638 24.1601 28.42 24.0585 28.2928C23.9703 28.1776 23.8731 28.0701 23.772 27.9671C28.3013 26.4013 31.5548 22.1004 31.5548 17.0387Z" fill="#00B1FF"/>
<path d="M14.6521 24.2728C15.0957 24.1188 15.5807 24.3533 15.7351 24.7983L16.078 25.7861C16.2322 26.2304 15.997 26.7158 15.5534 26.8697C15.109 27.0239 14.6238 26.7887 14.4696 26.3443L14.1267 25.3565C13.9723 24.9115 14.2077 24.427 14.6521 24.2728Z" fill="#2B3B47"/>
<path d="M16.4689 8.64431L15.1307 8.93914C14.7147 8.9948 14.3323 8.70276 14.2766 8.2866C14.2208 7.87053 14.513 7.48811 14.9291 7.43235C15.0781 7.41211 15.2297 7.4368 15.3645 7.50325L16.54 8.2073C16.595 8.23434 16.6371 8.28213 16.657 8.34018C16.6768 8.39822 16.6728 8.46178 16.6458 8.51687C16.6107 8.5884 16.5421 8.63401 16.4689 8.64431ZM15.3504 11.8823C15.3172 11.8307 15.265 11.7943 15.205 11.7812C15.1451 11.7681 15.0824 11.7793 15.0307 11.8124L13.8194 12.4528C13.6927 12.5337 13.5931 12.6505 13.5332 12.7884C13.3652 13.1732 13.5409 13.6213 13.9256 13.7892C14.3104 13.9573 14.7583 13.7815 14.9263 13.3969L15.3677 12.0997C15.3968 12.0317 15.3934 11.9494 15.3504 11.8823ZM20.4092 10.2689C20.4263 10.2125 20.4203 10.1516 20.3925 10.0996C20.3647 10.0477 20.3175 10.0088 20.2611 9.99172L19.0379 9.50564C18.8998 9.46349 18.7523 9.46349 18.6142 9.50564C18.2283 9.62273 18.0103 10.0304 18.1274 10.4163C18.2444 10.8022 18.6521 11.0201 19.0379 10.9031L20.2611 10.4171C20.3289 10.3959 20.3869 10.3421 20.4092 10.2689Z" fill="#7EDBFC"/>
<path d="M21.324 30.4605C21.213 30.3712 21.0993 30.2584 20.9903 30.1376C20.5507 29.6504 19.2327 29.413 18.607 29.611C17.8509 29.8507 17.098 30.1008 16.3487 30.3611C13.4232 31.3764 12.6599 31.349 11.1946 31.7406C9.9558 32.0717 17.0843 29.532 19.6492 28.1492C19.9643 29.0721 20.8197 29.9315 21.0399 30.1756C21.1328 30.2785 21.2287 30.3762 21.324 30.4605ZM22.8217 27.1712C22.9588 27.3009 23.051 27.3952 23.0823 27.4145C23.3123 27.556 23.5344 27.7274 23.7335 27.9276C23.7462 27.9403 23.7587 27.9534 23.7713 27.9662C27.1728 26.7906 29.8538 24.0728 30.9787 20.6481C29.7217 24.2871 24.7887 26.3771 22.8217 27.1712Z" fill="#7EDBFC"/>
</svg>
