<svg width="40" height="40" viewBox="0 0 40 40" fill="none" xmlns="http://www.w3.org/2000/svg">
<circle cx="20" cy="20" r="20" fill="#7639F7"/>
<path d="M14.1414 18.1132C13.0584 18.2062 12.2063 19.1026 12.2063 20.2072C12.2063 21.3149 13.0584 22.2113 14.1414 22.3056V22.3311H17.1144V22.3221H17.1227C18.2902 22.3221 19.2375 21.3748 19.2375 20.2073C19.2375 19.0397 18.2902 18.0924 17.1227 18.0924C17.1204 18.0924 17.1188 18.0969 17.1144 18.0969V18.0924H14.1414V18.1132Z" fill="#2B3B47"/>
<path d="M23.2174 10.7204C21.5207 10.0218 19.8798 9.54887 19.3339 9.43505C19.2481 9.41718 19.18 9.50624 19.2192 9.58461L19.4868 10.1198C19.5216 10.1894 19.4709 10.2715 19.393 10.2715H17.4702C17.4424 10.2715 17.4157 10.2825 17.396 10.3022C17.3764 10.3218 17.3653 10.3485 17.3653 10.3763C17.3653 10.3763 18.2373 11.0825 17.879 11.5172C14.7794 13.2062 12.625 16.845 12.625 20.4745C12.625 25.4318 16.6437 29.4505 21.601 29.4505C26.5583 29.4505 30.5771 25.4318 30.5771 20.4745C30.5771 16.069 27.4032 11.6498 23.2174 10.7204Z" fill="#FFD833"/>
<path d="M21.5874 19.3734C21.5269 18.6682 20.9432 18.1134 20.224 18.1134C19.5027 18.1134 18.9191 18.6682 18.8577 19.3734H18.8411V21.3091H18.847V21.3145C18.847 22.0747 19.4638 22.6915 20.224 22.6915C20.9842 22.6915 21.601 22.0747 21.601 21.3145C21.601 21.313 21.5981 21.312 21.5981 21.3091H21.601V19.3734H21.5874Z" fill="#2B3B47"/>
<path d="M14.1345 20.1246C15.6061 20.1246 17.03 24.4768 16.4891 25.144C15.9482 25.8112 11.9992 25.6703 10.691 25.144C9.36118 24.609 13.3702 20.1246 14.1345 20.1246Z" fill="#FFB636"/>
</svg>
