<svg width="40" height="40" viewBox="0 0 40 40" fill="none" xmlns="http://www.w3.org/2000/svg">
<circle cx="20" cy="20" r="20" fill="#FDCD60"/>
<path d="M32.6958 23.5615C32.6958 19.6883 29.4695 19.1806 29.3935 17.2907C29.3909 17.0939 29.3813 16.8989 29.3661 16.7054C30.7908 16.0645 31.7833 14.6337 31.7833 12.9703C31.7833 10.7088 29.9501 8.87554 27.6886 8.87554C26.7077 8.87554 25.8077 9.22085 25.1025 9.796C23.7598 8.98232 22.1847 8.51367 20.5 8.51367C18.752 8.51367 17.122 9.01807 15.7471 9.88901C15.0269 9.2585 14.0844 8.87554 13.052 8.87554C10.7905 8.87554 8.95723 10.7088 8.95723 12.9703C8.95723 14.7302 10.0677 16.2304 11.6261 16.8094C11.6148 16.9766 11.6082 17.144 11.6063 17.3116C11.5104 19.1617 8.43237 19.6902 8.35771 23.423C8.32208 23.698 8.30421 23.9749 8.3042 24.2522C8.3042 27.781 11.1648 30.6417 14.6937 30.6417C14.7101 30.6417 14.7271 30.6414 14.7448 30.6409C15.4154 30.6356 16.0612 30.5269 16.6674 30.33C17.0705 30.2481 17.4951 30.1594 17.9123 30.0758C19.671 30.996 21.592 31.2161 22.9539 30.2979C24.0287 30.5389 25.2419 30.7437 26.3062 30.6417C29.835 30.6417 32.6956 27.781 32.6956 24.2522C32.6956 24.041 32.6851 23.8323 32.665 23.6264C32.6851 23.6068 32.6958 23.5853 32.6958 23.5615ZM18.5057 29.9603C18.6643 29.9305 18.8194 29.9024 18.9694 29.8768C18.8175 29.9177 18.6624 29.9456 18.5057 29.9603Z" fill="#AF773F"/>
<path d="M21.5647 21.8614C21.5647 21.8614 21.9381 22.324 22.5644 23.018C22.8746 23.365 23.2027 23.7698 23.7325 24.2036C24.2458 24.6373 24.8859 25.1 25.2159 25.5626C25.5513 26.0253 25.5971 26.4879 25.6308 26.9216C25.6477 27.3554 25.5648 27.7602 25.4213 28.1072C25.2769 28.4542 25.0834 28.7433 24.8936 28.9458C24.7242 29.1482 24.5652 29.2638 24.5652 29.2638C22.0825 31.0706 18.7923 30.9749 16.4347 29.2638C16.4347 29.2638 16.2758 29.1482 16.1063 28.9458C15.9164 28.7434 15.723 28.4542 15.5785 28.1072C15.4351 27.7602 15.3522 27.3554 15.3691 26.9216C15.4028 26.4879 15.4486 26.0253 15.7839 25.5626C16.1139 25.1 16.7541 24.6373 17.2674 24.2036C17.7972 23.7698 18.1252 23.365 18.4354 23.018C19.0619 22.3241 19.4352 21.8614 19.4352 21.8614C19.9097 21.2733 20.7711 21.1813 21.3591 21.6558C21.4344 21.7172 21.5033 21.7861 21.5647 21.8614Z" fill="#D19B61"/>
<path d="M15.1083 18.8087C15.8479 18.8087 16.4476 19.4083 16.4476 20.148V21.7943C16.4476 22.5339 15.8479 23.1335 15.1083 23.1335C14.3687 23.1335 13.769 22.5339 13.769 21.7943V20.148C13.769 19.4083 14.3687 18.8087 15.1083 18.8087ZM25.8917 18.8087C25.1521 18.8087 24.5524 19.4083 24.5524 20.148V21.7943C24.5524 22.5339 25.1521 23.1335 25.8917 23.1335C26.6313 23.1335 27.231 22.5339 27.231 21.7943V20.148C27.231 19.4083 26.6313 18.8087 25.8917 18.8087ZM19.4519 24.4477L19.3505 24.4753L19.2963 24.4904L19.2391 24.5085C19.1989 24.5216 19.1465 24.5366 19.1035 24.5534L18.9515 24.6091C18.9025 24.6294 18.8478 24.6513 18.7983 24.6747C18.7445 24.6982 18.6987 24.7231 18.6467 24.7493C18.6013 24.7756 18.5496 24.8032 18.5084 24.8321C18.3268 24.9474 18.2098 25.0819 18.1599 25.2261C18.1354 25.298 18.1349 25.376 18.1583 25.4483C18.1809 25.524 18.2293 25.6008 18.2756 25.6777C18.3227 25.7546 18.3719 25.8315 18.4093 25.9072L18.4685 26.0196L18.5311 26.1294L18.5967 26.2355L18.6644 26.3372C18.7086 26.4006 18.7546 26.4627 18.8025 26.5234C18.8489 26.581 18.8921 26.6339 18.9358 26.6807C18.9789 26.7276 19.0153 26.7684 19.0506 26.8021C19.0836 26.8357 19.1123 26.8621 19.1323 26.8802C19.1516 26.8982 19.1637 26.9078 19.1637 26.9078C19.9282 27.517 21.0391 27.5427 21.8363 26.9078C21.8363 26.9078 21.8484 26.8982 21.8677 26.8802C21.8877 26.8621 21.9164 26.8357 21.9494 26.8021C21.9847 26.7684 22.0211 26.7276 22.0642 26.6807C22.1079 26.6339 22.1511 26.581 22.1975 26.5234C22.2454 26.4627 22.2914 26.4006 22.3356 26.3372L22.4033 26.2355L22.4689 26.1294L22.5315 26.0196L22.5907 25.9072C22.6281 25.8315 22.6773 25.7546 22.7244 25.6777C22.7707 25.6009 22.8191 25.524 22.8417 25.4483C22.8652 25.376 22.8646 25.298 22.8401 25.2261C22.7902 25.0819 22.6732 24.9474 22.4916 24.8321C22.4504 24.8032 22.3987 24.7756 22.3533 24.7493C22.3013 24.7231 22.2555 24.6981 22.2017 24.6747C22.1522 24.6513 22.0975 24.6294 22.0485 24.6091L21.8965 24.5534C21.8535 24.5366 21.8011 24.5216 21.7609 24.5085L21.7037 24.4904C21.6856 24.4854 21.6676 24.4804 21.6495 24.4753L21.5481 24.4477C20.8885 24.2702 20.1584 24.2551 19.4519 24.4477Z" fill="#2B3B47"/>
<path d="M10.9341 12.9703C10.9341 11.8005 11.8823 10.8523 13.0521 10.8523C13.4447 10.8518 13.8297 10.9609 14.1637 11.1675C13.1715 12.175 12.4178 13.4177 11.9938 14.8046C11.3605 14.4384 10.9341 13.7543 10.9341 12.9703ZM28.9622 14.6626C29.475 14.2761 29.8067 13.662 29.8067 12.9703C29.8067 11.8005 28.8584 10.8523 27.6887 10.8523C27.3609 10.8519 27.0376 10.9281 26.7443 11.0746C27.7479 12.0641 28.5172 13.2902 28.9622 14.6626Z" fill="#E583C9"/>
</svg>
