<svg width="40" height="40" viewBox="0 0 40 40" fill="none" xmlns="http://www.w3.org/2000/svg">
<circle cx="20" cy="20" r="20" fill="#F87A44"/>
<path d="M28.0006 18.0468C29.5328 17.2152 30.5734 15.5922 30.5734 13.7269C30.5734 11.0141 28.3735 8.81517 25.6616 8.81517C23.9812 8.81517 22.497 9.65907 21.6106 10.9459C21.2136 10.8744 20.811 10.8385 20.4076 10.8386C20.0241 10.8386 19.6482 10.8712 19.2822 10.9328C18.395 9.65326 16.9157 8.81512 15.241 8.81512C12.528 8.81512 10.3292 11.0141 10.3292 13.7269C10.3292 15.5766 11.3521 17.1877 12.8633 18.0255C10.7772 18.9078 9.31372 20.9734 9.31372 23.381C9.31372 26.5915 11.9158 29.1934 15.1261 29.1934C18.4648 29.1934 18.5624 30.1849 20.2892 30.1849C22.0161 30.1849 22.3502 29.1934 25.6888 29.1934C28.8993 29.1934 31.5024 26.5915 31.5024 23.381C31.5024 20.9922 30.0609 18.9406 28.0006 18.0468Z" fill="#E5E4DF"/>
<path d="M29.4113 13.7272C29.4113 15.7818 27.7481 17.448 25.6905 17.448C23.6329 17.448 21.9683 15.7818 21.9683 13.7272C21.9683 11.6695 23.6329 10.0049 25.6905 10.0049C27.7481 10.0049 29.4113 11.6695 29.4113 13.7272ZM19.5048 27.1343C19.5048 27.1343 19.3179 27.1651 19.1166 27.2189C18.9094 27.2727 18.6921 27.3496 18.5707 27.4419C18.4296 27.5342 18.4583 27.6419 18.4933 27.7572C18.5229 27.8725 18.5798 27.9956 18.65 28.1186C18.7943 28.3647 19.0567 28.6108 19.3188 28.7953C19.5737 28.9799 19.8503 29.1029 19.8503 29.1029C20.1915 29.253 20.5971 29.2664 20.9645 29.1029C20.9645 29.1029 21.241 28.9799 21.4959 28.7953C21.758 28.6108 22.0205 28.3647 22.1647 28.1186C22.235 27.9956 22.2919 27.8725 22.3215 27.7572C22.3563 27.6419 22.3852 27.5342 22.244 27.4419C22.1226 27.3496 21.9054 27.2727 21.6981 27.2189C21.4968 27.1651 21.31 27.1343 21.31 27.1343C20.7346 27.0422 20.1114 27.0345 19.5048 27.1343ZM18.0353 11.2689C17.3539 10.4941 16.3556 10.0049 15.241 10.0049C13.1834 10.0049 11.5188 11.6695 11.5188 13.7272C11.5188 15.229 12.4087 16.5224 13.6909 17.1102C13.8727 14.4278 15.6246 12.1768 18.0353 11.2689Z" fill="#FFA1E0"/>
<path d="M31.4278 22.6433C31.1255 20.2837 29.4258 18.38 27.1715 17.7833C27.1573 17.7139 27.1395 17.6456 27.1398 17.572C27.1398 13.8533 24.1261 10.8386 20.4073 10.8386C19.1781 10.8386 18.0295 11.1734 17.0377 11.7488C17.037 11.7897 17.0315 11.8294 17.0315 11.8705C17.0315 13.1535 18.0131 15.7928 19.1814 16.8057C19.3865 16.9974 19.6031 17.1762 19.8302 17.3411C21.406 18.5774 21.6116 19.64 21.191 20.5474C19.8774 23.381 21.7385 25.7667 24.1239 25.8968C26.0445 26.0016 27.1394 24.0003 28.7338 24.3035C30.5732 24.6533 31.5022 23.3811 31.4278 22.6433Z" fill="#FFB636"/>
<path d="M15.5025 19.595C16.1747 19.595 16.7205 20.1397 16.7205 20.8141V22.3108C16.7205 22.9839 16.1747 23.5299 15.5025 23.5299C14.8293 23.5299 14.2834 22.9839 14.2834 22.3108V20.8141C14.2834 20.1397 14.8292 19.595 15.5025 19.595ZM25.3112 19.595C24.638 19.595 24.0944 20.1397 24.0944 20.8141V22.3108C24.0944 22.9839 24.638 23.5299 25.3112 23.5299C25.9844 23.5299 26.5292 22.9839 26.5292 22.3108V20.8141C26.5292 20.1397 25.9844 19.595 25.3112 19.595Z" fill="#2B3B47"/>
</svg>
