<svg width="100%" height="10vw" viewBox="0 0 199 180" fill="none" xmlns="http://www.w3.org/2000/svg">
<path d="M164.053 21.5764L155.899 19.2466L164.053 17.111L166.383 8.7627L168.519 17.111L176.867 19.2466L168.519 21.5764L166.383 29.7305L164.053 21.5764ZM20.385 120.397L14.1724 119.038L20.385 117.485L21.9382 111.272L23.2972 117.485L29.7041 119.038L23.2972 120.397L21.9382 126.804L20.385 120.397ZM171.625 31.8661L168.713 31.2837L171.625 30.5071L172.207 27.789L172.79 30.5071L175.702 31.2837L172.79 31.8661L172.207 34.7783L171.625 31.8661ZM21.3558 86.8095L18.4436 86.2271L21.3558 85.6446L21.9382 82.7325L22.5207 85.6446L25.4328 86.2271L22.5207 86.8095L21.9382 89.7217L21.3558 86.8095Z" fill="#FDCD60"/>
<path d="M20.5801 48.7572C20.58 48.9867 20.6251 49.214 20.7129 49.426C20.8007 49.6381 20.9294 49.8308 21.0916 49.9931C21.2539 50.1554 21.4466 50.2842 21.6586 50.372C21.8706 50.4599 22.0979 50.5051 22.3274 50.5051C22.5569 50.5051 22.7842 50.4599 22.9962 50.372C23.2082 50.2842 23.4009 50.1554 23.5631 49.9931C23.7254 49.8308 23.8541 49.6381 23.9419 49.426C24.0296 49.214 24.0748 48.9867 24.0747 48.7572C24.0748 48.5277 24.0296 48.3004 23.9419 48.0883C23.8541 47.8763 23.7254 47.6836 23.5631 47.5213C23.4009 47.359 23.2082 47.2302 22.9962 47.1423C22.7842 47.0545 22.5569 47.0093 22.3274 47.0093C22.0979 47.0093 21.8706 47.0545 21.6586 47.1423C21.4466 47.2302 21.2539 47.359 21.0916 47.5213C20.9294 47.6836 20.8007 47.8763 20.7129 48.0883C20.6251 48.3004 20.58 48.5277 20.5801 48.7572Z" fill="#5546CB"/>
<path d="M176.865 119.232C175.905 119.232 174.967 118.947 174.169 118.414C173.371 117.881 172.749 117.123 172.381 116.236C172.014 115.349 171.918 114.373 172.105 113.431C172.292 112.49 172.755 111.625 173.433 110.946C174.112 110.268 174.977 109.805 175.918 109.618C176.86 109.431 177.836 109.527 178.723 109.894C179.61 110.262 180.368 110.884 180.901 111.682C181.434 112.48 181.719 113.418 181.719 114.378C181.719 115.666 181.208 116.9 180.297 117.81C179.387 118.721 178.153 119.232 176.865 119.232ZM176.865 112.243C176.891 111.737 177.113 111.261 177.484 110.917C177.855 110.572 178.347 110.386 178.853 110.399C179.359 110.412 179.841 110.622 180.194 110.984C180.548 111.347 180.746 111.833 180.746 112.34C180.746 112.846 180.548 113.333 180.194 113.695C179.841 114.058 179.359 114.268 178.853 114.281C178.347 114.293 177.855 114.108 177.484 113.763C177.113 113.419 176.891 112.943 176.865 112.437V112.243Z" fill="#5546CB"/>
<path d="M121.732 72.2487H135.322V112.02H121.732V72.2487Z" fill="#FDCD60"/>
<path d="M37.0845 123.697H162.309V130.492H37.0845V123.697Z" fill="#AFBCF3"/>
<path d="M166.188 119.815H33.1978V134.376H166.188V119.815ZM162.305 130.493H37.0807V123.698H162.305V130.493Z" fill="#5546CB"/>
<path d="M29.3154 143.694H169.683V150.49H29.3154V143.694Z" fill="#AFBCF3"/>
<path d="M24.8506 139.812V154.373H173.955V139.812H24.8506ZM169.684 150.49H29.316V143.695H169.684V150.49Z" fill="#5546CB"/>
<path d="M94.7437 74.9669H104.451V110.496H94.7437V74.9669Z" fill="#FDCD60"/>
<path d="M90.8618 114.378H108.335V71.0838H90.8618V114.378ZM94.7447 74.9667H104.452V110.496H94.7447V74.9667Z" fill="#5546CB"/>
<path d="M66.0107 74.9669H75.7181V110.496H66.0107V74.9669Z" fill="#FDCD60"/>
<path d="M62.1294 114.378H79.6026V71.0838H62.1294V114.378ZM66.0123 74.9667H75.7196V110.496H66.0123V74.9667Z" fill="#5546CB"/>
<path d="M37.0845 53.6106H46.7918V61.5706H37.0845V53.6106Z" fill="#FF8859"/>
<path d="M50.6709 49.7281H33.1978V65.454H50.6709V49.7281ZM46.788 61.5711H37.0807V53.6111H46.788V61.5711Z" fill="#5546CB"/>
<path d="M152.403 53.6106H162.111V61.5706H152.403V53.6106Z" fill="#FF8859"/>
<path d="M165.995 49.7281H148.521V65.454H165.995V49.7281ZM162.112 61.5711H152.404V53.6111H162.112V61.5711Z" fill="#5546CB"/>
<path d="M123.67 53.6106H133.378V61.5706H123.67V53.6106Z" fill="#FF8859"/>
<path d="M137.262 49.7281H119.789V65.454H137.262V49.7281ZM133.379 61.5711H123.671V53.6111H133.379V61.5711Z" fill="#5546CB"/>
<path d="M94.7437 53.6106H104.451V61.5706H94.7437V53.6106Z" fill="#FF8859"/>
<path d="M108.335 49.7281H90.8618V65.454H108.335V49.7281ZM104.452 61.5711H94.7447V53.6111H104.452V61.5711Z" fill="#5546CB"/>
<path d="M66.0107 53.6106H75.7181V61.5706H66.0107V53.6106Z" fill="#FF8859"/>
<path d="M79.6026 49.7281H62.1294V65.454H79.6026V49.7281ZM75.7196 61.5711H66.0123V53.6111H75.7196V61.5711Z" fill="#5546CB"/>
<path d="M100.181 8.37463L46.9854 40.4088H152.407L100.181 8.37463Z" fill="#FDCD60"/>
<path d="M100.178 3.71478L33.1978 44.2914H165.994L100.178 3.71478ZM100.178 8.37429L152.404 40.4084H46.9821L100.178 8.37429ZM119.593 114.766H137.066V71.4719H119.593V114.766ZM123.476 75.3548H133.183V110.884H123.476V75.3548Z" fill="#5546CB"/>
<path d="M152.209 75.3556H161.916V110.884H152.209V75.3556Z" fill="#FDCD60"/>
<path d="M148.327 114.767H165.8V71.4725H148.327V114.767ZM152.21 75.3554H161.917V110.884H152.21V75.3554Z" fill="#5546CB"/>
<path d="M36.8901 110.496H46.5975V74.5789H37.0843L36.8901 110.496Z" fill="#FDCD60"/>
<path d="M50.6709 70.6951H33.1978V114.378H50.4768L50.6709 70.6951ZM46.5939 110.495H36.8865V74.5781H46.3997L46.5939 110.495Z" fill="#5546CB"/>
</svg>
