<svg width="20" height="20" viewBox="0 0 20 20" fill="none" xmlns="http://www.w3.org/2000/svg">
<path d="M16.4878 4.07809L15.6683 3.84394L16.4878 3.62931L16.7219 2.79028L16.9366 3.62931L17.7756 3.84394L16.9366 4.07809L16.7219 4.8976L16.4878 4.07809ZM2.04877 14.0098L1.42438 13.8732L2.04877 13.7171L2.20487 13.0927L2.34145 13.7171L2.98535 13.8732L2.34145 14.0098L2.20487 14.6537L2.04877 14.0098ZM17.2488 5.11223L16.9561 5.0537L17.2488 4.97565L17.3073 4.70248L17.3658 4.97565L17.6585 5.0537L17.3658 5.11223L17.3073 5.40492L17.2488 5.11223ZM2.14633 10.6342L1.85365 10.5756L2.14633 10.5171L2.20487 10.2244L2.2634 10.5171L2.55608 10.5756L2.2634 10.6342L2.20487 10.9269L2.14633 10.6342Z" fill="#FDCD60"/>
<path d="M2.0683 6.80982C2.06829 6.83289 2.07283 6.85573 2.08165 6.87704C2.09047 6.89836 2.1034 6.91772 2.11971 6.93404C2.13602 6.95035 2.15538 6.96329 2.17669 6.97212C2.198 6.98095 2.22084 6.98549 2.24391 6.98549C2.26697 6.98549 2.28981 6.98095 2.31112 6.97212C2.33243 6.96329 2.3518 6.95035 2.3681 6.93404C2.38441 6.91772 2.39735 6.89836 2.40617 6.87704C2.41499 6.85573 2.41953 6.83289 2.41952 6.80982C2.41953 6.78676 2.41499 6.76392 2.40617 6.7426C2.39735 6.72129 2.38441 6.70192 2.3681 6.68561C2.3518 6.6693 2.33243 6.65636 2.31112 6.64753C2.28981 6.6387 2.26697 6.63416 2.24391 6.63416C2.22084 6.63416 2.198 6.6387 2.17669 6.64753C2.15538 6.65636 2.13602 6.6693 2.11971 6.68561C2.1034 6.70192 2.09047 6.72129 2.08165 6.7426C2.07283 6.76392 2.06829 6.78676 2.0683 6.80982Z" fill="#5546CB"/>
<path d="M17.7756 13.8927C17.6791 13.8927 17.5848 13.8641 17.5046 13.8105C17.4244 13.7569 17.3618 13.6807 17.3249 13.5916C17.288 13.5025 17.2783 13.4044 17.2972 13.3098C17.316 13.2151 17.3624 13.1282 17.4307 13.06C17.4989 12.9918 17.5858 12.9453 17.6804 12.9265C17.775 12.9077 17.8731 12.9173 17.9623 12.9542C18.0514 12.9912 18.1276 13.0537 18.1812 13.1339C18.2348 13.2141 18.2634 13.3084 18.2634 13.4049C18.2634 13.5343 18.212 13.6584 18.1205 13.7498C18.029 13.8413 17.905 13.8927 17.7756 13.8927ZM17.7756 13.1903C17.7781 13.1394 17.8004 13.0916 17.8378 13.057C17.8751 13.0224 17.9245 13.0037 17.9753 13.005C18.0262 13.0063 18.0746 13.0274 18.1102 13.0638C18.1457 13.1002 18.1656 13.1491 18.1656 13.2C18.1656 13.2509 18.1457 13.2998 18.1102 13.3363C18.0746 13.3727 18.0262 13.3938 17.9753 13.3951C17.9245 13.3964 17.8751 13.3777 17.8378 13.3431C17.8004 13.3085 17.7781 13.2606 17.7756 13.2098V13.1903Z" fill="#5546CB"/>
<path d="M12.2342 9.17078H13.6V13.1678H12.2342V9.17078Z" fill="#FDCD60"/>
<path d="M3.72687 14.3414H16.3122V15.0244H3.72687V14.3414Z" fill="#AFBCF3"/>
<path d="M16.7025 13.9512H3.33661V15.4146H16.7025V13.9512ZM16.3122 15.0243H3.72685V14.3414H16.3122V15.0243Z" fill="#5546CB"/>
<path d="M2.94635 16.3512H17.0537V17.0341H2.94635V16.3512Z" fill="#AFBCF3"/>
<path d="M2.49756 15.9609V17.4244H17.4829V15.9609H2.49756ZM17.0537 17.0341H2.94634V16.3512H17.0537V17.0341Z" fill="#5546CB"/>
<path d="M9.52197 9.44397H10.4976V13.0147H9.52197V9.44397Z" fill="#FDCD60"/>
<path d="M9.13177 13.4049H10.8879V9.05371H9.13177V13.4049ZM9.52202 9.44396H10.4976V13.0147H9.52202V9.44396Z" fill="#5546CB"/>
<path d="M6.63416 9.44397H7.60976V13.0147H6.63416V9.44397Z" fill="#FDCD60"/>
<path d="M6.2439 13.4049H7.99999V9.05371H6.2439V13.4049ZM6.63414 9.44396H7.60975V13.0147H6.63414V9.44396Z" fill="#5546CB"/>
<path d="M3.72687 7.29761H4.70248V8.09761H3.72687V7.29761Z" fill="#FF8859"/>
<path d="M5.09271 6.90735H3.33661V8.48784H5.09271V6.90735ZM4.70246 8.09759H3.72685V7.29759H4.70246V8.09759Z" fill="#5546CB"/>
<path d="M15.3171 7.29761H16.2927V8.09761H15.3171V7.29761Z" fill="#FF8859"/>
<path d="M16.683 6.90735H14.9269V8.48784H16.683V6.90735ZM16.2927 8.09759H15.3171V7.29759H16.2927V8.09759Z" fill="#5546CB"/>
<path d="M12.4293 7.29761H13.4049V8.09761H12.4293V7.29761Z" fill="#FF8859"/>
<path d="M13.7952 6.90735H12.0391V8.48784H13.7952V6.90735ZM13.4049 8.09759H12.4293V7.29759H13.4049V8.09759Z" fill="#5546CB"/>
<path d="M9.52197 7.29761H10.4976V8.09761H9.52197V7.29761Z" fill="#FF8859"/>
<path d="M10.8879 6.90735H9.13177V8.48784H10.8879V6.90735ZM10.4976 8.09759H9.52202V7.29759H10.4976V8.09759Z" fill="#5546CB"/>
<path d="M6.63416 7.29761H7.60976V8.09761H6.63416V7.29761Z" fill="#FF8859"/>
<path d="M7.99999 6.90735H6.2439V8.48784H7.99999V6.90735ZM7.60975 8.09759H6.63414V7.29759H7.60975V8.09759Z" fill="#5546CB"/>
<path d="M10.0683 2.75122L4.72198 5.97073H15.3171L10.0683 2.75122Z" fill="#FDCD60"/>
<path d="M10.0683 2.28296L3.33661 6.36101H16.6829L10.0683 2.28296ZM10.0683 2.75125L15.3171 5.97076H4.72197L10.0683 2.75125ZM12.0195 13.4439H13.7756V9.09271H12.0195V13.4439ZM12.4098 9.48296H13.3854V13.0537H12.4098V9.48296Z" fill="#5546CB"/>
<path d="M15.2975 9.48291H16.2732V13.0536H15.2975V9.48291Z" fill="#FDCD60"/>
<path d="M14.9073 13.4439H16.6634V9.09265H14.9073V13.4439ZM15.2976 9.48289H16.2732V13.0536H15.2976V9.48289Z" fill="#5546CB"/>
<path d="M3.70734 13.0147H4.68295V9.40491H3.72685L3.70734 13.0147Z" fill="#FDCD60"/>
<path d="M5.09271 9.01465H3.33661V13.4049H5.07319L5.09271 9.01465ZM4.68295 13.0146H3.70734V9.40489H4.66344L4.68295 13.0146Z" fill="#5546CB"/>
</svg>
