<svg width="20" height="20" viewBox="0 0 20 20" fill="none" xmlns="http://www.w3.org/2000/svg">
<path d="M15.3516 5.44922L14.4141 5.19531L15.3516 4.94141L15.6055 4.00391L15.8594 4.94141L16.8164 5.19531L15.8594 5.44922L15.6055 6.40625L15.3516 5.44922ZM16.2891 6.48438L15.918 6.40625L16.2891 6.30859L16.3672 5.9375L16.4648 6.30859L16.8359 6.40625L16.4648 6.48438L16.3672 6.85547L16.2891 6.48438Z" fill="#FDCD60"/>
<path d="M3.10547 13.9648L2.69531 13.8672L3.10547 13.7695L3.20312 13.3594L3.30078 13.7695L3.71094 13.8672L3.30078 13.9648L3.20312 14.375L3.10547 13.9648Z" fill="#FDCD60"/>
<path d="M4.58984 4.82422C4.58984 4.87084 4.60836 4.91555 4.64133 4.94851C4.67429 4.98148 4.719 5 4.76562 5C4.81225 5 4.85696 4.98148 4.88992 4.94851C4.92289 4.91555 4.94141 4.87084 4.94141 4.82422C4.94141 4.7776 4.92289 4.73289 4.88992 4.69992C4.85696 4.66696 4.81225 4.64844 4.76562 4.64844C4.719 4.64844 4.67429 4.66696 4.64133 4.69992C4.60836 4.73289 4.58984 4.7776 4.58984 4.82422Z" fill="#5546CB"/>
<path d="M5.625 16.0352L5.09766 15.918L5.625 15.7812L5.74219 15.2539L5.87891 15.7812L6.40625 15.918L5.87891 16.0352L5.74219 16.5625L5.625 16.0352Z" fill="#FDCD60"/>
<path d="M16.25 16.1719C16.1534 16.1719 16.059 16.1432 15.9787 16.0896C15.8984 16.0359 15.8358 15.9597 15.7989 15.8705C15.7619 15.7812 15.7523 15.6831 15.7711 15.5883C15.7899 15.4936 15.8364 15.4066 15.9047 15.3383C15.973 15.27 16.06 15.2235 16.1547 15.2047C16.2495 15.1859 16.3476 15.1955 16.4369 15.2325C16.5261 15.2694 16.6023 15.332 16.656 15.4123C16.7096 15.4926 16.7383 15.587 16.7383 15.6836C16.7383 15.8131 16.6868 15.9373 16.5953 16.0289C16.5037 16.1204 16.3795 16.1719 16.25 16.1719ZM16.25 15.4688C16.2114 15.4688 16.1736 15.4802 16.1415 15.5017C16.1094 15.5231 16.0843 15.5536 16.0696 15.5893C16.0548 15.625 16.0509 15.6643 16.0584 15.7022C16.066 15.7401 16.0846 15.7749 16.1119 15.8022C16.1392 15.8295 16.174 15.8481 16.2119 15.8556C16.2498 15.8632 16.2891 15.8593 16.3247 15.8445C16.3604 15.8297 16.3909 15.8047 16.4124 15.7726C16.4339 15.7405 16.4453 15.7027 16.4453 15.6641C16.4453 15.6123 16.4247 15.5626 16.3881 15.526C16.3515 15.4893 16.3018 15.4688 16.25 15.4688Z" fill="#5546CB"/>
<path d="M12.2461 9.80469L12.0508 9.47266L12.2656 9.33594V5.60547L11.8359 5.87891C11.8754 6.03202 11.8951 6.18955 11.8945 6.34766C11.8945 6.89453 11.5234 7.59766 10.7617 8.45703C11.1719 8.59375 11.4258 8.82812 11.4258 9.12109C11.4258 9.41406 10.8203 9.90234 10.0391 9.90234C9.25781 9.90234 8.65234 9.57031 8.65234 9.12109C8.65234 8.67188 8.90625 8.59375 9.31641 8.45703L8.82812 7.87109L8.04688 8.37891V11.8945H8.08594L8.30078 11.7578L8.51562 12.0898L8.18359 12.2852H8.04688V14.4727L12.2656 12.4805V9.78516L12.2461 9.80469ZM9.60938 11.4258L9.29688 11.6211L9.14062 11.7188L8.98438 11.8164H8.96484L8.86719 11.6406L8.76953 11.4844L8.94531 11.3867L9.41406 11.0938L9.60938 11.4258ZM10.7031 10.7422L10.0586 11.1328L9.86328 10.8008L10.5078 10.4102L10.7031 10.7422ZM11.7969 10.0586L11.1523 10.4492L10.957 10.1172L11.2891 9.92188L11.6016 9.72656L11.7969 10.0586ZM3.67188 12.5L7.65625 14.4336V8.33984L3.67188 5.78125V12.5ZM6.83594 11.0547L7.46094 11.4844L7.24609 11.7969L6.62109 11.3672L6.83594 11.0547ZM5.72266 10.4492L5.80078 10.3516L5.95703 10.4688L6.40625 10.7812L6.19141 11.0938L5.89844 10.8789L5.74219 10.7617L5.58594 10.6445L5.72266 10.4492ZM4.90234 9.57031C5.01437 9.57031 5.12388 9.60353 5.21702 9.66577C5.31017 9.72801 5.38277 9.81647 5.42563 9.91996C5.4685 10.0235 5.47972 10.1373 5.45787 10.2472C5.43601 10.3571 5.38207 10.458 5.30285 10.5372C5.22364 10.6164 5.12272 10.6704 5.01284 10.6922C4.90297 10.7141 4.78909 10.7029 4.68559 10.66C4.58209 10.6171 4.49363 10.5445 4.43139 10.4514C4.36916 10.3583 4.33594 10.2487 4.33594 10.1367C4.33589 10.0607 4.35116 9.98538 4.38084 9.91536C4.41052 9.84533 4.454 9.782 4.50868 9.72914C4.56336 9.67628 4.62813 9.63498 4.69912 9.60769C4.77011 9.5804 4.84587 9.56769 4.92188 9.57031H4.90234ZM12.6562 9.31641L12.8906 9.43359L12.7148 9.78516L12.6562 9.74609V12.5L16.8945 14.3555V8.35938L12.6562 5.56641V9.31641ZM16.0938 10.6445C16.2058 10.6445 16.3153 10.6778 16.4084 10.74C16.5016 10.8022 16.5742 10.8907 16.617 10.9942C16.6599 11.0977 16.6711 11.2116 16.6493 11.3214C16.6274 11.4313 16.5735 11.5322 16.4943 11.6114C16.415 11.6907 16.3141 11.7446 16.2043 11.7665C16.0944 11.7883 15.9805 11.7771 15.877 11.7342C15.7735 11.6914 15.685 11.6188 15.6228 11.5256C15.5606 11.4325 15.5273 11.323 15.5273 11.2109C15.5273 11.0607 15.587 10.9166 15.6932 10.8104C15.7995 10.7042 15.9435 10.6445 16.0938 10.6445ZM14.6875 10.3516L15.3906 10.7227L15.2148 11.0742L14.5117 10.7227L14.6875 10.3516ZM13.3398 9.90234L13.4375 9.70703L13.6133 9.78516L13.7891 9.86328L14.1406 10.0391L13.9648 10.3906L13.4375 10.1172L13.2617 10.0391L13.3398 9.90234Z" fill="#FDCD60"/>
<path d="M12.5 4.99995L11.6992 5.52729C11.5183 5.14089 11.2098 4.82863 10.8256 4.6431C10.4414 4.45758 10.005 4.41013 9.5899 4.50874C9.17481 4.60736 8.80638 4.84601 8.54667 5.18451C8.28696 5.523 8.15184 5.94066 8.16406 6.36714C8.16406 6.69917 8.30078 7.10933 8.59375 7.55854L7.87109 8.02729L3.28125 5.07808V12.7343L7.89062 14.9804L12.4414 12.832L17.2852 14.9414V8.14448L12.5 4.99995ZM8.55469 6.34761C8.55469 5.95652 8.71005 5.58144 8.98659 5.3049C9.26313 5.02836 9.63821 4.873 10.0293 4.873C10.4204 4.873 10.7955 5.02836 11.072 5.3049C11.3485 5.58144 11.5039 5.95652 11.5039 6.34761C11.5039 6.99214 10.7227 7.92964 10.0391 8.65229C8.82812 7.42183 8.55469 6.7187 8.55469 6.34761ZM10.4492 8.76948C10.8008 8.84761 11.0156 9.00386 11.0156 9.12104C11.0156 9.23823 10.625 9.51167 10.0195 9.51167C9.41406 9.51167 9.02344 9.27729 9.02344 9.12104C9.02344 8.96479 9.23828 8.84761 9.58984 8.76948L9.88281 9.06245L10.0195 9.19917L10.1562 9.06245L10.4492 8.76948ZM7.65625 14.4335L3.67188 12.5V5.7812L7.65625 8.33979V14.4335ZM8.04688 14.4726V12.3046H8.18359L8.51562 12.1093L8.30078 11.7773L8.08594 11.914H8.04688V8.37886L8.82812 7.87104L9.31641 8.45698C8.90625 8.5937 8.65234 8.82808 8.65234 9.12104C8.65234 9.41401 9.25781 9.90229 10.0391 9.90229C10.8203 9.90229 11.4258 9.57026 11.4258 9.12104C11.4258 8.67183 11.1719 8.5937 10.7617 8.45698C11.5234 7.59761 11.8945 6.89448 11.8945 6.34761C11.8951 6.1895 11.8754 6.03197 11.8359 5.87886L12.2656 5.60542V9.31636L12.0508 9.45308L12.2461 9.78511H12.2656V12.4804L8.04688 14.4726ZM16.8945 14.3554L12.6562 12.5V9.74604L12.7148 9.78511L12.8906 9.43354L12.6562 9.31636V5.56636L16.8945 8.35933V14.3554Z" fill="#5546CB"/>
<path d="M5.58594 10.6641L5.74219 10.7617L5.89844 10.8789L6.19141 11.0938L6.42578 10.7617L5.95703 10.4492L5.80078 10.332L5.72266 10.4297L5.58594 10.6641ZM7.24609 11.7969L7.46094 11.4844L6.83594 11.0547L6.62109 11.3672L7.24609 11.7969ZM9.39453 11.0938L8.92578 11.3867L8.75 11.4844L8.76953 11.5039H8.75L8.84766 11.6602L8.94531 11.8359V11.8164L8.96484 11.8359L9.12109 11.7383L9.29688 11.6406H9.27734L9.60938 11.4258L9.39453 11.0938ZM10.4883 10.4297L9.84375 10.8203L10.0586 11.1523L10.7031 10.7617L10.5078 10.4297H10.4883ZM11.6016 9.74609L11.2891 9.94141L10.957 10.1367L11.1523 10.4688L11.7969 10.0781L11.6016 9.74609ZM13.2617 10.0586L13.4375 10.1367L13.9648 10.4102L14.1406 10.0781V10.0586L13.7891 9.88281L13.6133 9.80469L13.4375 9.70703L13.3398 9.90234L13.2617 10.0586ZM15.2148 11.0547L15.3906 10.7031L14.6875 10.3516L14.5117 10.6836V10.7031L15.2148 11.0547Z" fill="#5546CB"/>
<path d="M16.0937 11.4258C16.1362 11.4258 16.1778 11.4132 16.2131 11.3896C16.2484 11.366 16.276 11.3324 16.2922 11.2932C16.3085 11.2539 16.3128 11.2107 16.3045 11.169C16.2962 11.1273 16.2757 11.0891 16.2457 11.059C16.2156 11.029 16.1773 11.0085 16.1357 11.0002C16.094 10.9919 16.0508 10.9962 16.0115 11.0124C15.9723 11.0287 15.9387 11.0562 15.9151 11.0916C15.8915 11.1269 15.8789 11.1684 15.8789 11.2109C15.8789 11.2679 15.9015 11.3226 15.9418 11.3629C15.9821 11.4031 16.0368 11.4258 16.0937 11.4258Z" fill="#F97744"/>
<path d="M16.0938 11.7773C16.2058 11.7773 16.3153 11.7441 16.4084 11.6819C16.5016 11.6196 16.5742 11.5312 16.617 11.4277C16.6599 11.3242 16.6711 11.2103 16.6493 11.1004C16.6274 10.9906 16.5735 10.8896 16.4943 10.8104C16.415 10.7312 16.3141 10.6773 16.2042 10.6554C16.0944 10.6336 15.9805 10.6448 15.877 10.6876C15.7735 10.7305 15.685 10.8031 15.6228 10.8963C15.5606 10.9894 15.5273 11.0989 15.5273 11.2109C15.5273 11.3612 15.587 11.5052 15.6932 11.6114C15.7995 11.7177 15.9435 11.7773 16.0938 11.7773ZM16.0938 10.9961C16.1362 10.9961 16.1778 11.0087 16.2131 11.0323C16.2484 11.0559 16.276 11.0895 16.2922 11.1287C16.3085 11.168 16.3128 11.2112 16.3045 11.2529C16.2962 11.2945 16.2757 11.3328 16.2457 11.3629C16.2156 11.3929 16.1773 11.4134 16.1357 11.4217C16.094 11.4299 16.0508 11.4257 16.0115 11.4094C15.9723 11.3932 15.9387 11.3656 15.9151 11.3303C15.8915 11.295 15.8789 11.2534 15.8789 11.2109C15.8789 11.154 15.9015 11.0993 15.9418 11.059C15.9821 11.0187 16.0368 10.9961 16.0938 10.9961Z" fill="#5546CB"/>
<path d="M4.92187 10.3516C4.96437 10.3516 5.0059 10.339 5.04124 10.3154C5.07657 10.2917 5.1041 10.2582 5.12036 10.2189C5.13663 10.1797 5.14088 10.1365 5.13259 10.0948C5.1243 10.0531 5.10384 10.0148 5.07379 9.9848C5.04375 9.95476 5.00546 9.93429 4.96379 9.926C4.92211 9.91771 4.87892 9.92197 4.83966 9.93823C4.8004 9.95449 4.76685 9.98203 4.74324 10.0174C4.71963 10.0527 4.70703 10.0942 4.70703 10.1367C4.70703 10.1937 4.72967 10.2483 4.76996 10.2886C4.81025 10.3289 4.86489 10.3516 4.92187 10.3516Z" fill="white"/>
<path d="M4.92188 10.7031C5.0339 10.7031 5.14341 10.6699 5.23655 10.6077C5.3297 10.5454 5.4023 10.457 5.44517 10.3535C5.48804 10.25 5.49925 10.1361 5.4774 10.0262C5.45554 9.91635 5.4016 9.81542 5.32238 9.73621C5.24317 9.657 5.14225 9.60305 5.03238 9.5812C4.9225 9.55934 4.80862 9.57056 4.70512 9.61343C4.60162 9.6563 4.51316 9.7289 4.45093 9.82204C4.38869 9.91519 4.35547 10.0247 4.35547 10.1367C4.35547 10.2869 4.41514 10.431 4.52137 10.5372C4.62759 10.6435 4.77165 10.7031 4.92188 10.7031ZM4.92188 9.92188C4.96437 9.92188 5.0059 9.93448 5.04124 9.95808C5.07657 9.98169 5.1041 10.0152 5.12037 10.0545C5.13663 10.0938 5.14088 10.137 5.13259 10.1786C5.1243 10.2203 5.10384 10.2586 5.07379 10.2886C5.04375 10.3187 5.00546 10.3391 4.96379 10.3474C4.92211 10.3557 4.87892 10.3515 4.83966 10.3352C4.8004 10.3189 4.76685 10.2914 4.74324 10.2561C4.71963 10.2207 4.70703 10.1792 4.70703 10.1367C4.70703 10.0797 4.72967 10.0251 4.76996 9.9848C4.81025 9.94451 4.86489 9.92188 4.92188 9.92188Z" fill="#5546CB"/>
<path d="M9.90234 9.08203L9.60938 8.78906C9.25781 8.86719 9.04297 9.02344 9.04297 9.14062C9.04297 9.25781 9.43359 9.53125 10.0391 9.53125C10.6445 9.53125 11.0352 9.29688 11.0352 9.14062C11.0352 8.98438 10.8203 8.86719 10.4688 8.78906L10.1758 9.08203L10.0391 9.21875L9.90234 9.08203Z" fill="#AFBCF3"/>
<path d="M10.0391 8.67188C10.7422 7.94922 11.5039 7.01172 11.5039 6.36719C11.5039 5.9761 11.3485 5.60102 11.072 5.32448C10.7955 5.04794 10.4204 4.89258 10.0293 4.89258C9.63821 4.89258 9.26313 5.04794 8.98659 5.32448C8.71005 5.60102 8.55469 5.9761 8.55469 6.36719C8.55469 6.71875 8.82812 7.42188 10.0391 8.67188ZM9.35547 6.38672C9.35547 6.25152 9.39556 6.11935 9.47067 6.00693C9.54579 5.89452 9.65255 5.8069 9.77746 5.75516C9.90237 5.70342 10.0398 5.68988 10.1724 5.71626C10.305 5.74264 10.4268 5.80774 10.5224 5.90334C10.618 5.99895 10.6831 6.12075 10.7095 6.25336C10.7359 6.38596 10.7224 6.52341 10.6706 6.64832C10.6189 6.77323 10.5313 6.87999 10.4188 6.95511C10.3064 7.03022 10.1743 7.07031 10.0391 7.07031C9.85776 7.07031 9.68389 6.99829 9.55569 6.87009C9.42749 6.74189 9.35547 6.56802 9.35547 6.38672Z" fill="#F97744"/>
<path d="M9.35547 6.38672C9.35547 6.56802 9.42749 6.74189 9.55569 6.87009C9.68389 6.99829 9.85776 7.07031 10.0391 7.07031C10.2204 7.07031 10.3942 6.99829 10.5224 6.87009C10.6506 6.74189 10.7227 6.56802 10.7227 6.38672C10.7227 6.20542 10.6506 6.03154 10.5224 5.90334C10.3942 5.77515 10.2204 5.70312 10.0391 5.70312C9.85776 5.70312 9.68389 5.77515 9.55569 5.90334C9.42749 6.03154 9.35547 6.20542 9.35547 6.38672Z" fill="white"/>
</svg>
