<svg width="117" height="117" viewBox="0 0 117 117" fill="none" xmlns="http://www.w3.org/2000/svg">
<circle cx="58.5" cy="58.5" r="58.5" fill="#FFC43D"/>
<path d="M95.0994 70.0221C95.0994 58.5575 85.5496 57.0545 85.3246 51.4605C85.3171 50.8781 85.2886 50.3007 85.2437 49.7279C89.4606 47.8309 92.3987 43.5959 92.3987 38.672C92.3987 31.9782 86.9722 26.5516 80.2783 26.5516C77.3748 26.5516 74.7107 27.5737 72.6235 29.2761C68.649 26.8677 63.9867 25.4805 58.9998 25.4805C53.8257 25.4805 49.001 26.9735 44.9314 29.5515C42.7995 27.6851 40.0097 26.5516 36.9537 26.5516C30.2599 26.5516 24.8334 31.978 24.8334 38.672C24.8334 43.8813 28.1204 48.322 32.7331 50.0359C32.6997 50.5307 32.6802 51.0264 32.6745 51.5223C32.3907 56.9987 23.2798 58.5629 23.0588 69.6121C22.9533 70.426 22.9004 71.2458 22.9004 72.0665C22.9004 82.5118 31.3679 90.9793 41.8132 90.9793C41.8617 90.9793 41.9123 90.9784 41.9646 90.977C43.9496 90.9614 45.8611 90.6395 47.6554 90.0569C48.8485 89.8145 50.1054 89.5519 51.3402 89.3045C56.5463 92.0283 62.2323 92.6797 66.2634 89.9616C69.4449 90.6752 73.036 91.2812 76.1862 90.9793C86.6314 90.9793 95.099 82.5118 95.099 72.0665C95.099 71.4414 95.0677 70.8235 95.0085 70.214C95.0677 70.1561 95.0994 70.0924 95.0994 70.0221ZM53.0969 88.9625C53.5662 88.8743 54.0253 88.7912 54.4695 88.7153C54.0198 88.8364 53.5606 88.9191 53.0969 88.9625Z" fill="#AF773F"/>
<path d="M62.1516 64.9896C62.1516 64.9896 63.2567 66.3591 65.1107 68.4133C66.0289 69.4403 67 70.6386 68.5682 71.9225C70.0875 73.2064 71.9822 74.5758 72.9592 75.9452C73.952 77.3147 74.0874 78.6841 74.1871 79.968C74.2373 81.2519 73.9917 82.4502 73.5671 83.4772C73.1397 84.5042 72.5669 85.3602 72.0052 85.9594C71.5035 86.5585 71.033 86.9009 71.033 86.9009C63.6841 92.2488 53.9451 91.9657 46.9667 86.9009C46.9667 86.9009 46.4963 86.5585 45.9946 85.9594C45.4327 85.3603 44.86 84.5044 44.4325 83.4772C44.008 82.4502 43.7625 81.2519 43.8126 79.968C43.9123 78.6841 44.0479 77.3147 45.0404 75.9452C46.0173 74.5758 47.9121 73.2064 49.4314 71.9225C50.9997 70.6386 51.9707 69.4403 52.8889 68.4133C54.7432 66.3592 55.8482 64.9896 55.8482 64.9896C57.2527 63.249 59.8024 62.9766 61.543 64.3812C61.7658 64.563 61.9697 64.7668 62.1516 64.9896Z" fill="#D19B61"/>
<path d="M43.0406 55.9537C45.23 55.9537 47.0048 57.7286 47.0048 59.9179V64.791C47.0048 66.9803 45.23 68.7552 43.0406 68.7552C40.8513 68.7552 39.0764 66.9803 39.0764 64.791V59.9179C39.0764 57.7286 40.8513 55.9537 43.0406 55.9537ZM74.9595 55.9537C72.7701 55.9537 70.9953 57.7286 70.9953 59.9179V64.791C70.9953 66.9803 72.7701 68.7552 74.9595 68.7552C77.1488 68.7552 78.9237 66.9803 78.9237 64.791V59.9179C78.9237 57.7286 77.1488 55.9537 74.9595 55.9537ZM55.8975 72.6451L55.5975 72.7269L55.4372 72.7715L55.2677 72.8252C55.1489 72.8639 54.9938 72.9083 54.8665 72.958L54.4164 73.1229C54.2716 73.1829 54.1094 73.2478 53.9631 73.3171C53.8037 73.3865 53.6683 73.4602 53.5142 73.538C53.38 73.6157 53.2267 73.6975 53.1051 73.7828C52.5674 74.1242 52.221 74.5224 52.0732 74.949C52.0008 75.1621 51.9992 75.3928 52.0688 75.6068C52.1354 75.8308 52.2789 76.0583 52.4159 76.286C52.5551 76.5135 52.7009 76.7411 52.8115 76.9651L52.9867 77.298L53.1721 77.6229L53.3662 77.9371L53.5665 78.238C53.6974 78.4257 53.8337 78.6095 53.9754 78.7891C54.1127 78.9598 54.2408 79.1162 54.37 79.2549C54.4975 79.3935 54.6054 79.5145 54.7099 79.6141C54.8075 79.7137 54.8923 79.7919 54.9517 79.8452C55.0088 79.8985 55.0445 79.927 55.0445 79.927C57.3076 81.7302 60.5958 81.8062 62.9556 79.927C62.9556 79.927 62.9913 79.8985 63.0484 79.8452C63.1076 79.7919 63.1926 79.7137 63.2902 79.6141C63.3947 79.5145 63.5026 79.3937 63.6301 79.2549C63.7593 79.1163 63.8874 78.9598 64.0247 78.7891C64.1664 78.6095 64.3027 78.4257 64.4336 78.238L64.6339 77.9371L64.828 77.6229L65.0134 77.298L65.1886 76.9651C65.2992 76.7411 65.445 76.5136 65.5842 76.286C65.7212 76.0585 65.8647 75.8308 65.9313 75.6068C66.0009 75.3928 65.9993 75.1621 65.9269 74.949C65.7791 74.5224 65.4327 74.1242 64.895 73.7828C64.7732 73.6975 64.6201 73.6157 64.4859 73.538C64.3318 73.4602 64.1962 73.3864 64.037 73.3171C63.8907 73.2478 63.7285 73.1829 63.5837 73.1229L63.1336 72.958C63.0063 72.9083 62.8512 72.8637 62.7324 72.8252L62.5629 72.7715C62.5094 72.7567 62.456 72.7419 62.4026 72.7269L62.1026 72.6451C60.1501 72.1198 57.9889 72.075 55.8975 72.6451Z" fill="#2B3B47"/>
<path d="M30.6846 38.672C30.6846 35.2096 33.4914 32.4028 36.9538 32.4028C38.1161 32.4012 39.2557 32.7244 40.2442 33.3358C37.3073 36.3179 35.0764 39.9964 33.8213 44.1016C31.9469 43.0178 30.6846 40.9929 30.6846 38.672ZM84.0477 43.6813C85.5658 42.5372 86.5475 40.7195 86.5475 38.672C86.5475 35.2096 83.7407 32.4028 80.2783 32.4028C79.308 32.4018 78.3509 32.6271 77.4829 33.0607C80.4533 35.9897 82.7306 39.6191 84.0477 43.6813Z" fill="#E583C9"/>
</svg>
