<svg width="117" height="117" viewBox="0 0 117 117" fill="none" xmlns="http://www.w3.org/2000/svg">
<circle cx="58.5" cy="58.5" r="58.5" fill="#1061FC"/>
<path d="M91.7225 50.7146C91.7225 44.0069 88.0893 39.4303 87.3441 35.3823L87.3435 35.3826C87.3195 35.2173 87.2914 35.0527 87.2593 34.8888C87.179 34.4681 87.104 33.9929 86.9929 33.5282C86.7895 32.5791 86.5392 31.5591 86.2272 30.5447C85.6356 28.5055 84.7976 26.4822 83.955 24.9905C83.5345 24.2447 83.1319 23.6287 82.8213 23.2013C82.5168 22.7722 82.3029 22.5363 82.3029 22.5363L82.2862 22.518C82.1892 22.411 82.0719 22.3241 81.9413 22.2624C81.8107 22.2007 81.6691 22.1653 81.5248 22.1583C81.3805 22.1513 81.2362 22.1727 81.1002 22.2215C80.9642 22.2702 80.8391 22.3453 80.7321 22.4424C80.6123 22.552 80.5177 22.6863 80.4549 22.8361C80.4549 22.8361 80.2486 23.1247 80.1872 23.6549C79.136 32.7379 68.6014 30.203 67.8322 32.2329C67.3416 33.5277 67.7409 34.0448 68.3216 34.6261C68.5569 34.8619 68.8646 35.0117 69.1953 35.0514C69.1862 35.0533 69.2981 35.0639 69.4115 35.1039C69.5256 35.1341 69.711 35.1996 69.9662 35.2521C70.4618 35.371 71.1689 35.5457 71.9809 35.7555C72.388 35.8526 72.8187 35.9899 73.2666 36.1172C73.718 36.2243 74.1708 36.4138 74.6452 36.5335C75.0996 36.7284 75.5894 36.838 76.0461 37.046C76.5111 37.2317 76.9829 37.402 77.4252 37.6283C77.8922 37.8052 78.3138 38.0583 78.7485 38.2717C79.1964 38.4651 79.5764 38.7526 79.9908 38.9665C80.4166 39.1657 80.7539 39.4716 81.1356 39.6876C81.5241 39.8974 81.8451 40.166 82.1669 40.3942L82.1765 40.4016C82.4564 40.6141 82.7225 40.8443 82.9732 41.0907C83.2487 41.9829 83.3614 42.9229 83.2705 43.8722C83.0635 46.0302 82.1116 48.126 80.4209 49.7425C77.6242 52.4162 73.9946 52.3364 70.252 51.972L63.5319 51.285C63.5621 48.3891 63.8456 45.363 64.139 42.9729C64.3959 40.881 62.2588 39.3301 60.3412 40.2047C52.1798 43.9273 48.7011 48.4408 47.2211 51.4864C47.0433 51.5438 46.8655 51.6024 46.688 51.664C34.4127 55.9245 27.5949 68.8148 30.6597 81.1852C30.8675 85.2607 28.6462 88.2882 26.5668 90.5633C24.2496 93.0984 27.1188 95.3914 31.456 94.2322C35.7933 93.0731 38.0527 93.1545 46.7123 90.1489C48.9303 89.3783 51.1587 88.6381 53.3969 87.9285C55.2488 87.3424 59.1501 88.0451 60.4512 89.4874C60.7738 89.845 61.1104 90.1788 61.439 90.4431C61.6187 90.602 61.7975 90.7453 61.9725 90.8654C62.3684 91.1393 62.778 91.3967 63.209 91.6169C63.6338 91.8446 64.0974 92.0138 64.5488 92.1742C65.465 92.4791 66.4212 92.6424 67.3174 92.6904C67.7634 92.7168 68.1993 92.7087 68.6055 92.6778C68.9941 92.6678 69.3635 92.6224 69.6788 92.5719C69.978 92.5406 70.2563 92.4639 70.4334 92.427L70.7094 92.365C71.2143 92.2514 71.6015 91.8103 71.6229 91.2688L71.634 90.9861C71.6383 90.8052 71.6635 90.5175 71.6404 90.2177C71.6333 89.8985 71.6113 89.5269 71.5509 89.143C71.5062 88.7155 71.4327 88.2915 71.3308 87.8739C71.1218 87.001 70.7886 86.0901 70.3235 85.2438C70.0842 84.8287 69.8341 84.4032 69.5335 84.0266C69.2725 83.6858 68.9847 83.3675 68.6853 83.0626C82.0923 78.4279 91.7225 65.6973 91.7225 50.7146Z" fill="#00B1FF"/>
<path d="M41.6904 72.1274C43.0035 71.6717 44.4391 72.3656 44.8963 73.683L45.911 76.6069C46.3675 77.9221 45.6714 79.3586 44.3582 79.8143C43.0429 80.2708 41.6066 79.5744 41.1502 78.2592L40.1354 75.3353C39.6783 74.018 40.3752 72.5839 41.6904 72.1274Z" fill="#2B3B47"/>
<path d="M47.0677 25.8673L43.1068 26.74C41.8754 26.9047 40.7433 26.0403 40.5785 24.8084C40.4133 23.5769 41.2782 22.4449 42.51 22.2799C42.9509 22.22 43.3996 22.293 43.7987 22.4897L47.2781 24.5737C47.4411 24.6537 47.5657 24.7952 47.6244 24.967C47.6832 25.1389 47.6713 25.327 47.5914 25.4901C47.4875 25.7018 47.2843 25.8368 47.0677 25.8673ZM43.7569 35.4517C43.6588 35.2989 43.5041 35.1912 43.3267 35.1524C43.1493 35.1136 42.9637 35.1468 42.8108 35.2448L39.2253 37.1404C38.8502 37.3798 38.5552 37.7257 38.378 38.1338C37.8808 39.2728 38.4007 40.5991 39.5396 41.0961C40.6785 41.5936 42.0044 41.0734 42.5018 39.9348L43.8082 36.0952C43.8942 35.894 43.8842 35.6503 43.7569 35.4517ZM58.7311 30.676C58.7816 30.509 58.7639 30.3288 58.6816 30.175C58.5994 30.0212 58.4595 29.9063 58.2925 29.8556L54.672 28.4168C54.2633 28.292 53.8266 28.292 53.4178 28.4168C52.2754 28.7634 51.6302 29.9702 51.9768 31.1123C52.3231 32.2547 53.5299 32.8996 54.672 32.5533L58.2925 31.1146C58.4934 31.052 58.6651 30.8928 58.7311 30.676Z" fill="#7EDBFC"/>
<path d="M61.4391 90.443C61.1104 90.1788 60.7738 89.845 60.4512 89.4874C59.15 88.0451 55.2486 87.3424 53.3968 87.9285C51.1586 88.6381 48.9302 89.3783 46.7122 90.1489C38.0528 93.1543 35.7932 93.0731 31.4559 94.2322C27.7892 95.2121 48.8896 87.6948 56.4815 83.6016C57.4145 86.3336 59.9462 88.8772 60.5982 89.5998C60.8729 89.9044 61.1569 90.1936 61.4391 90.443ZM65.8723 80.7068C66.278 81.0907 66.551 81.3699 66.6436 81.427C67.3244 81.8459 67.9817 82.3532 68.5711 82.9458C68.6088 82.9833 68.6457 83.0221 68.6831 83.0601C78.7515 79.5802 86.6872 71.5354 90.0168 61.3983C86.2963 72.1698 71.6946 78.3563 65.8723 80.7068Z" fill="#7EDBFC"/>
</svg>
