<svg width="117" height="117" viewBox="0 0 117 117" fill="none" xmlns="http://www.w3.org/2000/svg">
<circle cx="58.5" cy="58.5" r="58.5" fill="#A94FBF"/>
<path d="M83.3334 62.8187C81.9055 62.2933 80.5406 61.9577 79.3317 61.8228C75.3574 58.0485 69.9885 55.7293 64.0882 55.7293C59.4721 55.7293 55.1819 57.1493 51.6297 59.5743C46.3702 59.1838 41.9541 55.233 41.0562 49.9608L41.0476 49.9602C40.3424 46.1008 37.3369 43.1776 33.6888 43.1221C29.4656 43.058 22.9021 46.8372 22.3577 51.5612C21.5759 58.343 27.6248 58.44 32.9544 58.4396C35.3792 62.965 39.3182 66.516 44.035 68.4745C42.689 71.3319 41.9348 74.5207 41.9348 77.8826C41.9348 80.7954 44.2953 83.1572 47.2094 83.1572C50.1234 83.1572 52.484 80.7954 52.484 77.8826C52.484 74.804 53.6916 72.0038 55.6549 69.9244C58.919 69.4184 60.5315 68.1641 61.0173 66.6942C62.0177 66.4186 63.0505 66.2788 64.0882 66.2785C70.4855 66.2785 75.6923 71.4839 75.6923 77.8826C75.6923 80.7954 78.0528 83.1572 80.9669 83.1572C83.8811 83.1572 86.2416 80.7954 86.2416 77.8826C86.2416 75.3601 85.8167 72.9352 85.0365 70.6743C89.8391 69.9046 95.5092 67.6263 95.6697 65.6423C95.8779 63.0654 91.6452 65.8774 83.3334 62.8187Z" fill="#97C83D"/>
<path d="M33.3898 45.7631C34.5121 45.7631 35.4219 46.6729 35.4219 47.7952V50.2932C35.4219 51.4155 34.5121 52.3254 33.3898 52.3254C32.2675 52.3254 31.3577 51.4155 31.3577 50.2932V47.7952C31.3575 46.6729 32.2673 45.7631 33.3898 45.7631Z" fill="#2C3C47"/>
<path d="M80.531 55.8595C80.4998 55.7948 80.4705 55.732 80.438 55.6665C76.9698 48.6559 71.5752 45.3302 70.4458 46.1996C69.535 46.9008 71.3257 47.0711 73.1459 54.0245C71.3458 53.7331 69.4558 53.5257 67.499 53.4137C66.5287 49.3886 65.1054 46.0638 64.0882 46.0638C63.0709 46.0638 61.6476 49.3886 60.6774 53.4137C58.7206 53.5257 56.8305 53.7331 55.0304 54.0245C56.8506 47.0711 58.6415 46.9008 57.7305 46.1996C56.6012 45.3302 51.2065 48.656 47.7384 55.6665C47.706 55.732 47.6766 55.795 47.6453 55.8595C41.4413 58.042 37.4565 61.4314 37.4565 65.2375C37.4565 71.8212 49.3799 77.1584 64.088 77.1584C78.7961 77.1584 90.7195 71.8212 90.7195 65.2375C90.7198 61.4314 86.7351 58.042 80.531 55.8595Z" fill="#009D82"/>
<path d="M64.2817 40.5154V40.4893C64.2716 40.4893 64.2622 40.4919 64.2521 40.4919C64.242 40.4919 64.2327 40.4893 64.2226 40.4893V40.4945C64.1784 40.4945 64.1324 40.5026 64.0882 40.503C64.0439 40.5027 63.9978 40.4945 63.9536 40.4945V40.4893C63.9435 40.4893 63.9342 40.4919 63.9241 40.4919C63.914 40.4919 63.8945 40.5154 63.8945 40.5154C53.7376 40.7374 40.937 50.0049 40.937 62.3019C40.937 63.9672 43.0193 72.7019 63.8948 72.8142V72.8247C63.9052 72.8247 63.9139 72.8239 63.9243 72.8239C63.9347 72.8239 63.9432 72.8247 63.9536 72.8247V72.8231C64.0012 72.8231 64.0411 72.8195 64.0883 72.8195C64.1356 72.8195 64.1753 72.8231 64.2229 72.8231V72.8247C64.2333 72.8247 64.2418 72.8239 64.2522 72.8239C64.2626 72.8239 64.2713 72.8247 64.2817 72.8247V72.8142C85.1571 72.7019 87.2395 63.9672 87.2395 62.3019C87.2392 50.0049 74.4386 40.7374 64.2817 40.5154ZM53.7527 60.2963C52.3915 68.9045 48.5245 64.5021 47.3951 63.6328C46.2657 62.7634 45.2445 60.7077 47.7385 55.6663C51.2067 48.6557 56.6013 45.33 57.7307 46.1994C58.86 47.0688 55.8363 47.1192 53.7527 60.2963ZM64.0882 67.2342C62.4011 67.2342 59.5957 67.8479 59.5957 61.5288C59.5957 55.2098 62.4011 46.0638 64.0882 46.0638C65.7753 46.0638 68.5806 55.2099 68.5806 61.5288C68.5806 67.8479 65.7753 67.2342 64.0882 67.2342ZM80.7812 63.6328C79.6519 64.5021 75.7848 68.9045 74.4236 60.2963C72.34 47.1192 69.3164 47.0688 70.4458 46.1994C71.5752 45.33 76.9698 48.6559 80.438 55.6663C82.9319 60.7079 81.9106 62.7634 80.7812 63.6328Z" fill="#047F67"/>
</svg>
