<svg width="117" height="117" viewBox="0 0 117 117" fill="none" xmlns="http://www.w3.org/2000/svg">
<circle cx="58.5" cy="58.5" r="58.5" fill="#F87A44"/>
<path d="M81.2016 53.6985C85.7368 51.237 88.8171 46.4329 88.8171 40.9118C88.8171 32.8816 82.3055 26.3729 74.2782 26.3729C69.304 26.3729 64.911 28.8709 62.2872 32.68C61.112 32.4683 59.9203 32.362 58.7262 32.3623C57.5911 32.3623 56.4785 32.4587 55.3952 32.641C52.7691 28.8537 48.3904 26.3728 43.4332 26.3728C35.4026 26.3728 28.8941 32.8816 28.8941 40.9118C28.8941 46.3866 31.9222 51.1557 36.3953 53.6354C30.2205 56.2473 25.8884 62.3612 25.8884 69.4879C25.8884 78.991 33.5905 86.6926 43.0931 86.6926C52.9756 86.6926 53.2644 89.6272 58.3759 89.6272C63.4874 89.6272 64.4765 86.6926 74.3587 86.6926C83.8618 86.6926 91.5669 78.991 91.5669 69.4879C91.5669 62.4169 87.3002 56.3441 81.2016 53.6985Z" fill="#E5E4DF"/>
<path d="M85.3779 40.9124C85.3779 46.994 80.4547 51.9261 74.3642 51.9261C68.2736 51.9261 63.3464 46.994 63.3464 40.9124C63.3464 34.8219 68.2736 29.8947 74.3642 29.8947C80.4547 29.8947 85.3779 34.8219 85.3779 40.9124ZM56.0545 80.5977C56.0545 80.5977 55.5014 80.6887 54.9055 80.848C54.2921 81.0073 53.6491 81.2349 53.2895 81.5081C52.872 81.7812 52.9571 82.0999 53.0604 82.4413C53.1482 82.7827 53.3165 83.1469 53.5245 83.5111C53.9515 84.2396 54.7283 84.9679 55.5042 85.5142C56.2586 86.0605 57.0772 86.4247 57.0772 86.4247C58.0871 86.869 59.2877 86.9085 60.3752 86.4247C60.3752 86.4247 61.1938 86.0605 61.9482 85.5142C62.7241 84.9679 63.5009 84.2396 63.9279 83.5111C64.1359 83.1469 64.3044 82.7827 64.392 82.4413C64.4952 82.0999 64.5804 81.7812 64.1627 81.5081C63.8031 81.2349 63.1603 81.0073 62.5469 80.848C61.951 80.6887 61.3979 80.5977 61.3979 80.5977C59.6947 80.3251 57.8502 80.3021 56.0545 80.5977ZM51.7049 33.636C49.6878 31.3424 46.733 29.8947 43.4338 29.8947C37.3432 29.8947 32.416 34.8219 32.416 40.9124C32.416 45.3578 35.0502 49.1864 38.8455 50.9261C39.3834 42.9864 44.5691 36.3233 51.7049 33.636Z" fill="#FFA1E0"/>
<path d="M91.3466 67.304C90.4516 60.3197 85.4205 54.6849 78.7478 52.9184C78.7059 52.713 78.6531 52.5108 78.654 52.2932C78.654 41.2858 69.7335 32.3623 58.7259 32.3623C55.0874 32.3623 51.6875 33.3532 48.7518 35.0564C48.7496 35.1775 48.7334 35.295 48.7334 35.4165C48.7334 39.2144 51.6389 47.0266 55.0973 50.0249C55.7041 50.5922 56.3454 51.1214 57.0176 51.6095C61.682 55.2692 62.2904 58.4144 61.0454 61.1002C57.1573 69.4878 62.6662 76.5493 69.727 76.9346C75.412 77.2448 78.6528 71.3209 83.3723 72.2184C88.817 73.2538 91.5668 69.4879 91.3466 67.304Z" fill="#FFB636"/>
<path d="M44.2075 58.2812C46.1971 58.2812 47.8127 59.8933 47.8127 61.8896V66.3198C47.8127 68.3124 46.1971 69.9284 44.2075 69.9284C42.2148 69.9284 40.5991 68.3124 40.5991 66.3198V61.8896C40.5991 59.8935 42.2147 58.2812 44.2075 58.2812ZM73.2414 58.2812C71.2487 58.2812 69.6396 59.8933 69.6396 61.8896V66.3198C69.6396 68.3124 71.2487 69.9284 73.2414 69.9284C75.234 69.9284 76.8465 68.3124 76.8465 66.3198V61.8896C76.8465 59.8935 75.234 58.2812 73.2414 58.2812Z" fill="#2B3B47"/>
</svg>
