<svg width="117" height="117" viewBox="0 0 117 117" fill="none" xmlns="http://www.w3.org/2000/svg">
<circle cx="58.5" cy="58.5" r="58.5" fill="#7639F7"/>
<path d="M40.1788 53.8951C36.9733 54.1704 34.4509 56.8236 34.4509 60.0933C34.4509 63.3721 36.9733 66.0253 40.1788 66.3047V66.3801H48.9789V66.3534H49.0035C52.4594 66.3534 55.2634 63.5493 55.2634 60.0934C55.2634 56.6375 52.4594 53.8335 49.0035 53.8335C48.9967 53.8335 48.9921 53.8466 48.9789 53.8466V53.8335H40.1788V53.8951Z" fill="#2B3B47"/>
<path d="M67.0438 32.0124C62.0215 29.9445 57.1645 28.5447 55.5486 28.2078C55.2947 28.1549 55.0931 28.4185 55.209 28.6505L56.001 30.2345C56.1042 30.4408 55.9542 30.6836 55.7235 30.6836H50.0319C49.9496 30.6836 49.8707 30.7163 49.8125 30.7745C49.7543 30.8327 49.7216 30.9116 49.7216 30.9939C49.7216 30.9939 52.3025 33.0841 51.2419 34.3709C42.0672 39.3704 35.6902 50.1411 35.6902 60.8844C35.6902 75.5581 47.5855 87.4535 62.2592 87.4535C76.9329 87.4535 88.8283 75.5581 88.8283 60.8844C88.8283 47.8444 79.4337 34.7636 67.0438 32.0124Z" fill="#FFD833"/>
<path d="M62.219 57.6252C62.0398 55.5381 60.3122 53.8958 58.1833 53.8958C56.0484 53.8958 54.321 55.5381 54.139 57.6252H54.0898V63.355H54.1073V63.3711C54.1073 65.6213 55.9331 67.447 58.1833 67.447C60.4335 67.447 62.2592 65.6213 62.2592 63.3711C62.2592 63.3666 62.2507 63.3637 62.2507 63.355H62.2592V57.6252H62.219Z" fill="#2B3B47"/>
<path d="M40.1582 59.8488C44.5142 59.8488 48.7287 72.7313 47.1277 74.7063C45.5268 76.6813 33.8377 76.264 29.9654 74.7063C26.0291 73.1228 37.8958 59.8488 40.1582 59.8488Z" fill="#FFB636"/>
</svg>
