<svg width="117" height="117" viewBox="0 0 117 117" fill="none" xmlns="http://www.w3.org/2000/svg">
<circle cx="58.5" cy="58.5" r="58.5" fill="#338732"/>
<path d="M49.6366 74.8686C57.1346 66.7277 64.3844 43.3161 47.5221 27.7853C30.6598 12.2546 14.57 28.6379 33.3151 45.9028" fill="#AF773F"/>
<path d="M70.4624 27.7871C69.5263 28.6468 68.6392 29.5583 67.8051 30.5173C64.942 29.6477 61.9661 29.2059 58.9738 29.2062C42.9223 29.2062 29.9102 41.8212 29.9102 55.2526C29.9102 57.059 30.1459 58.8192 30.5928 60.5131C31.4159 63.633 31.7996 66.8495 31.8081 70.0762C31.8083 70.1192 31.8086 70.1625 31.8092 70.2057C31.8943 76.5006 37.0338 81.6439 43.3287 81.732C46.4074 81.7751 49.2171 80.6271 51.3281 78.7202C53.7646 79.2747 56.3276 79.5725 58.9739 79.5725C61.6203 79.5725 64.1833 79.2747 66.6198 78.7202C68.7307 80.6271 71.5404 81.7751 74.6189 81.732C80.9138 81.644 86.0535 76.5009 86.1386 70.2058C86.1392 70.1625 86.1395 70.1192 86.1396 70.076C86.148 66.8494 86.532 63.6325 87.355 60.5125C87.8084 58.796 88.0378 57.0279 88.0374 55.2525C88.0374 51.7347 87.1435 48.2735 85.5375 45.0796C102.893 28.1438 87.0642 12.5205 70.4624 27.7871Z" fill="#D19B61"/>
<path d="M81.8692 49.8961C82.7068 45.6281 79.9258 41.4891 75.6578 40.6516C71.3898 39.814 67.2509 42.5949 66.4133 46.8629V46.8634L66.4132 46.8632C65.5658 49.6839 66.0607 50.5852 65.7054 53.2965C65.326 56.1929 64.8408 55.4589 64.1667 58.8936C63.1615 64.0159 66.499 68.9833 71.6214 69.9885C76.6535 70.9761 81.5332 67.7711 82.6568 62.8016C82.6779 62.7157 82.6981 62.6273 82.7163 62.5339C83.7533 57.2498 80.918 54.7426 81.8692 49.8961Z" fill="#AF773F"/>
<path d="M64.7506 85.0502C64.7506 89.4738 62.1641 93.06 58.9734 93.06C55.7828 93.06 53.1962 89.4738 53.1962 85.0502C53.1962 80.6265 55.7828 77.0404 58.9734 77.0404C62.1641 77.0404 64.7506 80.6265 64.7506 85.0502ZM82.6534 40.5627L83.0891 39.7911C93.1669 30.5237 84.5299 21.7153 75.4642 30.0517C74.5506 30.8917 73.7707 31.7755 73.107 32.689C76.889 34.6706 80.1518 37.3891 82.6534 40.5627ZM34.8857 39.7794L35.3132 40.5382C37.8183 37.3679 41.0829 34.6529 44.866 32.6752C44.2047 31.7647 43.4278 30.8838 42.5183 30.0461C33.4592 21.7024 24.8152 30.5041 34.8857 39.7794Z" fill="#FFA1E0"/>
<path d="M75.0903 72.2611C73.9951 68.1734 70.933 65.182 67.3329 64.1831V56.1174C67.3329 51.5007 63.5903 47.7582 58.9736 47.7582C54.357 47.7582 50.6144 51.5008 50.6144 56.1174V64.1831C47.0143 65.182 43.9522 68.1734 42.857 72.2611C41.2596 78.2223 44.4494 84.2564 49.9813 85.7387C53.0023 86.5482 56.0953 85.8299 58.5424 84.0426V77.0405H59.4051V84.0426C61.8521 85.8299 64.9451 86.5482 67.9661 85.7387C73.498 84.2564 76.6877 78.2222 75.0903 72.2611Z" fill="#EADFD6"/>
<path d="M49.5791 79.5723C49.5791 79.4351 49.6336 79.3036 49.7306 79.2066C49.8275 79.1096 49.9591 79.0551 50.0962 79.0551C50.2334 79.0551 50.3649 79.1096 50.4619 79.2066C50.5589 79.3036 50.6134 79.4351 50.6134 79.5723C50.6134 79.7094 50.5589 79.841 50.4619 79.938C50.3649 80.0349 50.2334 80.0894 50.0962 80.0894C49.9591 80.0894 49.8275 80.0349 49.7306 79.938C49.6336 79.841 49.5791 79.7094 49.5791 79.5723ZM48.9012 74.3878C49.0384 74.3878 49.1699 74.3333 49.2669 74.2363C49.3639 74.1394 49.4184 74.0078 49.4184 73.8707C49.4184 73.7335 49.3639 73.602 49.2669 73.505C49.1699 73.408 49.0384 73.3535 48.9012 73.3535C48.7641 73.3535 48.6326 73.408 48.5356 73.505C48.4386 73.602 48.3841 73.7335 48.3841 73.8707C48.3841 74.0078 48.4386 74.1394 48.5356 74.2363C48.6326 74.3333 48.7641 74.3878 48.9012 74.3878ZM45.7376 78.0748C45.8747 78.0748 46.0063 78.0203 46.1033 77.9233C46.2002 77.8263 46.2547 77.6948 46.2547 77.5577C46.2547 77.4205 46.2002 77.289 46.1033 77.192C46.0063 77.095 45.8747 77.0405 45.7376 77.0405C45.6004 77.0405 45.4689 77.095 45.3719 77.192C45.2749 77.289 45.2205 77.4205 45.2205 77.5577C45.2205 77.6948 45.2749 77.8263 45.3719 77.9233C45.4689 78.0203 45.6004 78.0748 45.7376 78.0748ZM67.7993 73.3534C67.6621 73.3534 67.5306 73.4079 67.4336 73.5049C67.3366 73.6018 67.2821 73.7334 67.2821 73.8705C67.2821 74.0077 67.3366 74.1392 67.4336 74.2362C67.5306 74.3332 67.6621 74.3877 67.7993 74.3877C67.9364 74.3877 68.068 74.3332 68.1649 74.2362C68.2619 74.1392 68.3164 74.0077 68.3164 73.8705C68.3164 73.7334 68.2619 73.6018 68.1649 73.5049C68.068 73.4079 67.9364 73.3534 67.7993 73.3534ZM68.9943 79.0551C68.8571 79.0551 68.7256 79.1096 68.6286 79.2066C68.5316 79.3036 68.4771 79.4351 68.4771 79.5723C68.4771 79.7094 68.5316 79.841 68.6286 79.938C68.7256 80.0349 68.8571 80.0894 68.9943 80.0894C69.1314 80.0894 69.2629 80.0349 69.3599 79.938C69.4569 79.841 69.5114 79.7094 69.5114 79.5723C69.5114 79.4351 69.4569 79.3036 69.3599 79.2066C69.2629 79.1096 69.1314 79.0551 68.9943 79.0551ZM72.1579 75.3682C72.0208 75.3682 71.8892 75.4226 71.7922 75.5196C71.6953 75.6166 71.6408 75.7481 71.6408 75.8853C71.6408 76.0224 71.6953 76.154 71.7922 76.251C71.8892 76.3479 72.0208 76.4024 72.1579 76.4024C72.2951 76.4024 72.4266 76.3479 72.5236 76.251C72.6206 76.154 72.675 76.0224 72.675 75.8853C72.675 75.7481 72.6206 75.6166 72.5236 75.5196C72.4266 75.4226 72.2951 75.3682 72.1579 75.3682Z" fill="#AF773F"/>
<path d="M43.6966 51.3845C45.7698 51.3845 47.4504 53.0651 47.4504 55.1383V60.7257C47.4504 62.7989 45.7698 64.4795 43.6966 64.4795C41.6235 64.4795 39.9429 62.7989 39.9429 60.7257V55.1383C39.9429 53.0651 41.6235 51.3845 43.6966 51.3845ZM74.2504 51.3845C72.1772 51.3845 70.4966 53.0651 70.4966 55.1383V60.7257C70.4966 62.7989 72.1772 64.4795 74.2504 64.4795C76.3236 64.4795 78.0042 62.7989 78.0042 60.7257V55.1383C78.0042 53.0651 76.3236 51.3845 74.2504 51.3845ZM62.1965 71.6247C62.1965 71.6247 60.6084 71.6815 59.0203 71.7049L55.8442 71.6247C55.1481 71.6111 54.4408 71.9041 53.9637 72.483C53.135 73.4888 53.2785 74.9759 54.2843 75.8047L55.8442 77.09C55.8442 77.09 56.2412 77.4171 56.8368 77.6902C57.1346 77.7885 57.482 77.9424 57.8542 78.0365L58.5425 78.1185V84.0427C58.6889 83.936 58.8327 83.8257 58.9737 83.712C59.1148 83.8257 59.2586 83.936 59.405 84.0427V78.177C59.6717 78.1526 59.9349 78.0881 60.1866 78.0699C60.5588 78.0648 60.9063 77.8397 61.204 77.7401C61.7996 77.4786 62.1966 77.09 62.1966 77.09L63.854 75.4672C64.0756 75.249 64.2494 74.9871 64.3642 74.6981C64.4791 74.409 64.5325 74.0993 64.521 73.7885C64.4763 72.549 63.4357 71.5803 62.1965 71.6247Z" fill="#2B3B47"/>
</svg>
