<svg width="149" height="149" viewBox="0 0 149 149" fill="none" xmlns="http://www.w3.org/2000/svg">
<path d="M120.1 28.2462L114.001 26.5035L120.1 24.906L121.843 18.6614L123.44 24.906L129.685 26.5035L123.44 28.2462L121.843 34.3456L120.1 28.2462ZM22.2192 122.787L17.4268 121.625L22.2192 120.609L23.2357 115.816L24.3975 120.609L29.0447 121.625L24.3975 122.787L23.2357 127.434L22.2192 122.787Z" fill="#FDCD60"/>
<path d="M125.764 35.943L123.585 35.3621L125.764 34.9264L126.199 32.748L126.635 34.9264L128.813 35.3621L126.635 35.943L126.199 37.9761L125.764 35.943ZM18.443 69.4897L16.2646 69.0541L18.443 68.4732L18.8787 66.44L19.4596 68.4732L21.4927 69.0541L19.4596 69.4897L18.8787 71.6681L18.443 69.4897Z" fill="#FDCD60"/>
<path d="M26.2861 47.7061C26.2861 47.8778 26.3198 48.0478 26.3855 48.2064C26.4512 48.3651 26.5474 48.5092 26.6688 48.6306C26.7902 48.752 26.9343 48.8483 27.0929 48.9141C27.2515 48.9798 27.4215 49.0136 27.5932 49.0136C27.7648 49.0136 27.9348 48.9798 28.0934 48.9141C28.252 48.8483 28.3961 48.752 28.5175 48.6306C28.6389 48.5092 28.7351 48.3651 28.8008 48.2064C28.8665 48.0478 28.9002 47.8778 28.9002 47.7061C28.9002 47.5345 28.8665 47.3644 28.8008 47.2058C28.7351 47.0472 28.6389 46.9031 28.5175 46.7817C28.3961 46.6602 28.252 46.5639 28.0934 46.4982C27.9348 46.4325 27.7648 46.3987 27.5932 46.3987C27.4215 46.3987 27.2515 46.4325 27.0929 46.4982C26.9343 46.5639 26.7902 46.6602 26.6688 46.7817C26.5474 46.9031 26.4512 47.0472 26.3855 47.2058C26.3198 47.3644 26.2861 47.5345 26.2861 47.7061Z" fill="#5546CB"/>
<path d="M108.048 115.816C107.33 115.816 106.628 115.603 106.031 115.204C105.433 114.805 104.968 114.238 104.693 113.575C104.419 112.912 104.347 112.182 104.487 111.477C104.627 110.773 104.973 110.126 105.48 109.618C105.988 109.111 106.635 108.765 107.339 108.625C108.044 108.485 108.774 108.557 109.437 108.831C110.1 109.106 110.667 109.571 111.066 110.169C111.465 110.766 111.678 111.468 111.678 112.186C111.678 113.148 111.296 114.072 110.615 114.753C109.934 115.434 109.01 115.816 108.048 115.816ZM108.048 110.588C107.76 110.588 107.48 110.673 107.241 110.833C107.002 110.992 106.816 111.219 106.706 111.485C106.596 111.75 106.567 112.042 106.623 112.324C106.679 112.605 106.818 112.864 107.021 113.067C107.224 113.27 107.483 113.409 107.764 113.465C108.046 113.521 108.338 113.492 108.603 113.382C108.869 113.272 109.096 113.086 109.255 112.847C109.415 112.608 109.5 112.328 109.5 112.04C109.464 111.681 109.295 111.348 109.026 111.106C108.758 110.864 108.409 110.732 108.048 110.733V110.588Z" fill="#5546CB"/>
<path d="M94.1046 15.9021C91.6358 13.4333 87.2791 13.7238 84.3746 16.6282L74.935 26.0678C74.2089 26.7939 73.628 28.1009 73.1923 29.9888L76.3873 33.1838L74.0637 35.5074L70.2878 31.7315C69.5819 31.8137 68.9205 32.119 68.3999 32.6029L16.4097 84.7383C13.5053 87.6428 13.2148 91.9995 15.6836 94.6135L54.0228 132.953C55.0393 133.969 56.6368 134.55 58.2343 134.55C59.8317 134.55 62.3005 133.679 63.7528 132.081L114.581 81.2529C115.453 80.3816 115.888 79.2198 116.179 77.3319L113.274 74.4274L115.598 72.1038L118.357 74.8631C120.971 73.9917 122.568 73.1204 123.585 72.1038L131.718 63.9713C134.622 61.0668 134.913 56.7101 132.444 54.096L94.1046 15.9021ZM109.208 44.9469L105.577 48.5775L103.544 46.5444L107.175 42.9138L109.208 44.9469ZM101.221 36.9596L97.59 40.5902L95.5568 38.5571L99.1874 34.9265L101.221 36.9596ZM95.2664 31.0054L97.2995 33.0386L93.6689 36.6692L91.6358 34.636L95.2664 31.0054ZM87.2791 23.0181L89.3122 25.0512L85.6816 28.6818L83.6485 26.6487L87.2791 23.0181ZM84.2294 72.1038C82.9223 73.8465 81.1796 75.8796 78.8561 78.058C76.5325 80.2364 73.0471 83.5765 71.7401 84.7383L76.0968 99.6964L68.8356 104.489L62.1553 93.7422L56.6368 97.8085L54.4584 103.908H50.5374L48.7947 98.2441L43.131 96.211V92.5804L51.4087 90.402L55.1845 86.481L44.0023 77.4771L49.3756 71.9586L64.1884 77.3319C65.4955 76.0249 68.2547 73.1204 71.4496 70.3611C74.6446 67.6019 76.242 66.5853 78.2752 65.4235C80.3083 64.2617 83.2128 63.5356 84.9555 64.1165C86.6982 64.6974 86.5529 65.2783 86.6982 66.2949C86.8434 67.3114 86.1173 69.635 84.2294 72.1038ZM84.8102 46.2539L80.5988 42.0424L82.9223 39.7189L87.1338 43.9304L84.8102 46.2539ZM87.7147 30.8602L91.3453 27.2296L93.3785 29.2627L89.7479 32.8933L87.7147 30.8602ZM95.702 57.1457L91.4906 52.9342L93.8141 50.6107L98.0256 54.8222L95.702 57.1457ZM99.6231 42.7686L103.254 39.138L105.287 41.1711L101.656 44.8017L99.6231 42.7686ZM106.594 67.8923L102.382 63.6808L104.706 61.3572L108.917 65.5687L106.594 67.8923ZM107.61 50.6107L111.241 46.9801L113.274 49.0132L109.644 52.6438L107.61 50.6107ZM111.531 54.5317L115.162 50.9011L117.195 52.9342L113.565 56.5648L111.531 54.5317ZM117.486 60.4859L115.453 58.4528L119.083 54.8222L121.116 56.8553L117.486 60.4859ZM121.261 64.6974L119.228 62.6643L122.859 59.0337L124.892 61.0668L121.261 64.6974Z" fill="#FBCE49"/>
<path d="M134.477 52.2081L96.1383 13.869C92.5077 10.2384 86.2631 10.5288 82.1968 14.5951L72.7573 24.0347C71.7407 25.0512 70.8694 26.6487 70.2885 28.8271C68.5458 28.9723 67.2388 29.5532 66.077 30.5697L14.3772 82.7052C10.3109 86.7714 10.0205 93.0161 13.6511 96.6467L51.845 134.986C53.4425 136.583 55.7661 137.455 58.0896 137.455C60.4132 137.455 63.6082 136.293 65.6413 134.26L116.615 83.2861C117.922 81.979 118.648 80.2364 119.084 77.6223C122.279 76.6058 124.312 75.444 125.619 74.137L133.751 66.0044C137.672 62.0834 138.108 55.8387 134.477 52.2081ZM131.718 64.1165L123.586 72.249C122.569 73.2656 120.972 74.137 118.358 75.0083L115.598 72.249L113.275 74.5726L116.179 77.4771C115.889 79.2198 115.453 80.5268 114.582 81.3982L63.7534 132.227C62.1559 133.679 60.268 134.695 58.2349 134.695C56.2017 134.695 55.0399 134.114 54.0234 133.098L15.6842 94.4683C13.2154 91.9995 13.5059 87.4976 16.4103 84.5931L68.4005 32.6029C68.9211 32.119 69.5825 31.8137 70.2885 31.7315L74.0643 35.5074L76.3879 33.1838L73.1929 29.9888C73.6286 28.1009 74.2095 26.7939 74.9356 26.0678L84.3752 16.6282C87.2797 13.7238 91.6364 13.4333 94.1052 15.9021L132.444 54.2413C134.913 56.7101 134.623 61.212 131.718 64.1165Z" fill="#5546CB"/>
<path d="M102.383 63.6808L106.595 67.8923L108.918 65.4235L104.707 61.3572L102.383 63.6808ZM80.5996 42.0424L84.8111 46.2539L87.1347 43.9303L83.0684 39.7188L80.5996 42.0424ZM91.4914 52.9342L95.7029 57.0005L98.0265 54.6769L93.815 50.4654L91.4914 52.9342Z" fill="#5546CB"/>
<path d="M83.6483 66.8758C83.0674 66.5853 80.4534 66.2949 73.1922 72.5395C70.4967 74.8697 67.9275 77.342 65.4953 79.9459L64.7692 80.672L50.1016 75.2988L48.2137 77.1867L59.3959 86.1906L52.7156 93.0161L46.6162 94.6135L51.1182 96.211L52.5704 101.003L54.3131 96.211L63.0265 89.6759L69.7068 100.568L72.6113 98.5346L68.3998 83.7217L69.1259 83.1409C69.1259 83.1409 73.1922 79.8007 76.968 75.8796C83.5031 69.3446 83.6483 67.3114 83.6483 66.8758Z" fill="#F97744"/>
<path d="M84.8102 64.2617C83.0675 63.5356 81.0343 63.9712 78.1298 65.5687C75.2254 67.1662 73.9184 68.328 71.3043 70.5063C68.6903 72.6847 65.2049 76.1701 64.0431 77.4771L49.3755 71.9586L44.0022 77.4771L55.1845 86.481L51.4086 90.402L43.1309 92.5804V96.5014L48.7946 98.5346L50.5373 104.198H54.6036L56.7819 98.0989L62.3004 94.0326L68.9807 104.779L76.2419 99.9868L71.74 84.7383C73.047 83.5765 76.0967 80.9625 78.856 78.058C81.6152 75.1535 82.9222 73.7013 84.2293 72.1038C85.5363 70.5063 86.8433 67.8923 86.5528 66.4401C86.2624 64.9878 85.8267 64.6974 84.8102 64.2617ZM76.9681 75.8796C73.1922 79.6554 69.126 82.9956 69.126 83.1408L68.3998 83.7217L72.7566 98.5346L69.8521 100.568L63.1718 89.6759L54.4583 96.211L52.7156 101.003L51.2634 96.211L46.7615 94.6135L52.8609 93.0161L59.5412 86.1905L48.3589 77.1866L50.2468 75.2987L65.0597 80.672L65.7858 79.9459C68.2179 77.342 70.7872 74.8697 73.4827 72.5395C80.7439 66.2948 83.2127 66.5853 83.9388 66.8757C83.7936 67.3114 83.5031 69.4898 76.9681 75.8796Z" fill="#5546CB"/>
<path d="M83.6797 26.909L87.3765 23.2122L89.4303 25.2661L85.7334 28.9628L83.6797 26.909ZM87.7301 30.7274L91.4268 27.0306L93.4807 29.0845L89.7839 32.7812L87.7301 30.7274ZM91.6778 34.7937L95.3746 31.0969L97.4283 33.1508L93.7317 36.8474L91.6778 34.7937ZM95.583 38.8174L99.2798 35.1206L101.334 37.1745L97.6367 40.8712L95.583 38.8174ZM99.5307 42.7385L103.228 39.0416L105.281 41.0955L101.585 44.7922L99.5307 42.7385ZM103.581 46.5568L107.278 42.86L109.332 44.9139L105.635 48.6106L103.581 46.5568ZM107.529 50.6231L111.226 46.9263L113.28 48.9802L109.583 52.6769L107.529 50.6231ZM111.434 54.6468L115.131 50.95L117.185 53.0039L113.488 56.7006L111.434 54.6468ZM115.484 58.4652L119.181 54.7684L121.235 56.8223L117.538 60.519L115.484 58.4652ZM119.142 62.7971L122.839 59.1003L124.892 61.154L121.196 64.8509L119.142 62.7971Z" fill="white"/>
</svg>
